<svg xmlns="http://www.w3.org/2000/svg" width="29.249" height="31.501" viewBox="0 0 29.249 31.501">
  <g id="house-door-fill" transform="translate(-3.375 -2.249)">
    <path id="Path_160" data-name="Path 160" d="M14.625,24.739v7.886A1.125,1.125,0,0,1,13.5,33.75h-9a1.125,1.125,0,0,1-1.125-1.125V16.875a1.125,1.125,0,0,1,.328-.8l13.5-13.5a1.125,1.125,0,0,1,1.593,0l13.5,13.5a1.125,1.125,0,0,1,.328.8v15.75A1.125,1.125,0,0,1,31.5,33.75h-9a1.125,1.125,0,0,1-1.125-1.125V24.75a1.21,1.21,0,0,0-1.125-1.125h-4.5A1.208,1.208,0,0,0,14.625,24.739Z"/>
    <path id="Path_161" data-name="Path 161" d="M29.25,5.625V13.5L24.75,9V5.625A1.125,1.125,0,0,1,25.875,4.5h2.25A1.125,1.125,0,0,1,29.25,5.625Z" fill-rule="evenodd"/>
  </g>
</svg>
