<svg xmlns="http://www.w3.org/2000/svg" width="41" height="41" viewBox="0 0 41 41">
  <path id="FontAwsome_calendar-day_" data-name="FontAwsome (calendar-day)" d="M0,37.156A4.147,4.147,0,0,0,4.393,41H36.607A4.147,4.147,0,0,0,41,37.156V15.375H0ZM5.857,21.781A1.386,1.386,0,0,1,7.321,20.5h8.786a1.386,1.386,0,0,1,1.464,1.281v7.688a1.386,1.386,0,0,1-1.464,1.281H7.321a1.386,1.386,0,0,1-1.464-1.281ZM36.607,5.125H32.214V1.281A1.386,1.386,0,0,0,30.75,0H27.821a1.386,1.386,0,0,0-1.464,1.281V5.125H14.643V1.281A1.386,1.386,0,0,0,13.179,0H10.25A1.386,1.386,0,0,0,8.786,1.281V5.125H4.393A4.147,4.147,0,0,0,0,8.969v3.844H41V8.969A4.147,4.147,0,0,0,36.607,5.125Z" fill="#755a40" opacity="0.346"/>
</svg>
