<svg xmlns="http://www.w3.org/2000/svg" viewBox="0 0 200 250"><defs><style>.cls-1{fill:none;stroke:#d5b092;stroke-miterlimit:10;}.cls-2{fill:#d0e1d8;}.cls-3{fill:#d0ded7;}.cls-4{fill:#231f20;}</style></defs><g id="ceviche_logo" data-name="ceviche logo"><path class="cls-1" d="M121,63.64c.06-.3,3.68-5,6.67-5.56s.74,5.35-1.84,5.71-3.1,0-3.1,0c0-1,3.31-25.06,13-29.35,0,0-.7-2.26,4.69-3.16a32.42,32.42,0,0,1,5.22-.36s-.88-7.71-3.3-8.26-1.7,8.58-1.7,8.58"/><path class="cls-1" d="M134.52,35.07s.38-9.08,3.36-13.13a.74.74,0,0,1,1.33.38l.74,9"/><path class="cls-1" d="M135.32,35.07s6.38-1.44,6.79-.62S137,40,135.32,40.17s0-2.29,0-2.29l3.6-2.81,1-.88"/><path class="cls-1" d="M142.68,33.71c4.17-1.39,5.15-1.31,5.56-.57s-.65,2.61-1.72,2.94-6,1.11-6,1.11l5.81-.54s5.4.66,6.46,2.87S142.27,43,139.41,42.3s-6.95-5.56-6.95-5.56"/><path class="cls-1" d="M115.52,64s-6.14-4.63-5.52-20a63,63,0,0,0-4.53-26.54"/><path class="cls-1" d="M130.65,38.85s-2-11.47-1.21-16.21,1.82-6.47.5-7.06-3.32,3.48-3.32,3.48c-.33,3.74,2,3.58,2.82,3.58"/><path class="cls-1" d="M122.37,56s-3.31-2.47-1.66-13.09c0,0,3.21-2.16,1.66,4l-1.55,6.19"/><path class="cls-1" d="M110,43.92s3-3.76,3.54-12.49c0,0,.57-1.27,1.45-3.08l.85-1.72c2.23-4.42,5.56-10.39,7.62-11.11,3.31-1.16-1.94,7.7-1.94,7.7l-6.64,5.36"/><path class="cls-1" d="M106.88,19.81s8.65-4.63,10.29-10.29c0-.14.08-.29.11-.43s-6.2,1-10.4,7.83l-.76,2"/><path class="cls-1" d="M109.24,13.83s2-4,2.07-6.88c0-1.41-.43-2.57-1.81-2.89-4.21-1-3.69,13.32-3.69,13.32a13.32,13.32,0,0,1-1.41-.18c-3.05-.54-10.12-2.65-11.54-10.75,0,0,1.06-4.39,5.69,3.05l4.64,7.44"/><path class="cls-1" d="M111.31,11.31a14.3,14.3,0,0,0,3-2.94.91.91,0,0,0-.74-1.43h-2.24"/><path class="cls-1" d="M104.4,17.2V5.3s-5.18-1.26-6.6,0L96.39,6.55"/><path class="cls-1" d="M110.46,55.07s4-13.33,6.22-14.64c0,0-1.37-1.48,1.21-3.85s7-8.21,9-6.42-7.53,9.37-7.53,9.37l-2.63.9"/><path class="cls-1" d="M110,42.57s-9.89-6.11-13.88-12.75c0,0-1.35-5.5,3-1.47a8.66,8.66,0,0,1,2.25,3.45,50.86,50.86,0,0,1,1.85,5.76"/><path class="cls-1" d="M111,58.25s-3.28,1.08-13.77-10c0,0-6.11-7.85-9.58-9.91,0,0,4.24-10.17,2.06-11.48s-5.15,2-5.15,2-2.31-2.45-3.86-1.36a1.41,1.41,0,0,0-.38,2.27l6,4.7c.32.25,1.21,4.33,1.21,4.33l-1-.78-6.59-5,5.75,5.34s-7.52.92-11.45-1.24S78,36.24,78,36.24l1.47-.77s-3.28.44-3.53-.75,2.38-5.26,6.36-3.4"/><path class="cls-1" d="M99.74,50.8l-2.36-8.23L97,42.31c-1-.75-3.48-3.13-2.48-6.65,0,0,2.7,1.86,2.83,6.91"/><path class="cls-1" d="M99.06,50.13a15.71,15.71,0,0,1-15.38-1.22s-.13-2.8,6.56-.38l6.69,2.41"/><path class="cls-2" d="M140.85,239.72l-41.32.6a1.09,1.09,0,0,1-.81-.32l-.26-.27a11,11,0,0,0-3.41-2.32l-.47-.2a1.13,1.13,0,0,1-.66-.85c-2.12-13.85-1-42.36-.28-55.19a18.18,18.18,0,0,1,4.51-11c1.66-1.9,5.93-6.74,3.19-17.93a95.38,95.38,0,0,1-2.14-11.86A22.48,22.48,0,0,1,101.38,128c3.39-6.94,5.72-13.94,5.72-15.7,0-2,1-41.12,1.25-48.73a1.11,1.11,0,0,1,1.27-1.07,52.05,52.05,0,0,0,16.09-.08l.62-.12,2.49,46a29.63,29.63,0,0,0,1.67,8.38c1.37,3.86,3.33,9.4,4.13,11.67,4.52,12.73,5.08,39.64,5.08,39.64l1.61,27.37.64,43.17A1.12,1.12,0,0,1,140.85,239.72Z"/><path class="cls-3" d="M62.08,140.35c4.37-.8,21.39-3.56,32.72-.08a2.07,2.07,0,0,1,1.28,1.14c1.79,4,8.62,20.9-.41,28.9C87,178,81.61,181.21,80.13,182a2.11,2.11,0,0,0-.7.63h0a2.1,2.1,0,0,0-.38,1.26L80,233.07a2.12,2.12,0,0,0,1.8,2.06,60.1,60.1,0,0,1,13.31,3.59s2.48,2.07-2.09,3.72a2,2,0,0,1-.59.12c-3,.18-27.25,1.64-31.38,0-3.53-1.41-1.42-3.5-.43-4.29a2.09,2.09,0,0,1,.87-.4l12.44-2.59a2.11,2.11,0,0,0,1.69-2.08l-.18-48.78a2.11,2.11,0,0,0-1-1.83c-2.2-1.28-7.62-5-14.13-13.44-7.31-9.5-1.48-23.77.31-27.6A2.08,2.08,0,0,1,62.08,140.35Z"/><path class="cls-3" d="M50.93,166.35c4.13-.7,14.82-2.17,22.56-.15a3.31,3.31,0,0,1,2.21,1.93c1.67,4,4.4,14.13-.66,20.73C69.56,196,64.55,197,63.45,197.6a1.62,1.62,0,0,0-.53.48h0a1.55,1.55,0,0,0-.28.93l.66,35.2a3.35,3.35,0,0,0,2.75,3.23,44.79,44.79,0,0,1,8.55,2.45s1.71,1.43-1.17,2.63a3.46,3.46,0,0,1-1.09.25c-3.11.19-20.16,1.16-23.14,0-1.81-.72-1.63-1.69-1.1-2.41a3.19,3.19,0,0,1,1.94-1.2l7.36-1.53a3.33,3.33,0,0,0,2.66-3.28l-.13-34a3.3,3.3,0,0,0-1.53-2.77A41.26,41.26,0,0,1,48.61,188c-5-6.47-1.79-15.9-.18-19.67A3.31,3.31,0,0,1,50.93,166.35Z"/><path class="cls-4" d="M52.54,153.85c-4.69.61-11.45,7.71-16.27,16.32-7.82,14.32-5.44,22.52-.44,23.28,6.24,1,17.52-13.52,20.74-18.06.51-.29,1.45.31,1.22.9C56.7,179.13,47.56,191,42,194.16c-4.48,2.51-9.43.74-12.3-1.95-3.37-3.17-4.1-9.17,1-20,6.14-12.74,15.63-20.42,19.54-20.73,3-.27,9.5,3.17,7.79,6.76a21.27,21.27,0,0,1-6.2,7.29c-1.23,1.06-2.62.63-1.55-.9,1.13-1.71,5.77-8.54,4.39-10A2.93,2.93,0,0,0,52.54,153.85Z"/><path class="cls-4" d="M57.63,181.57a11.65,11.65,0,0,0-.7,3.13c-.07,1.66.64,3.5,2.47,3.76,5.24.7,12-9.55,14.5-12.79.62-.7,1.4-.46,1.45.25-1.82,3.78-6.85,11.38-11.61,14-3.31,1.8-8.81.09-10.11-3.89-2-6.18,4.55-16.13,9.26-18.46,3.86-1.92,8.11,2.27,7.7,4.87C70.12,175.46,62.16,179.65,57.63,181.57Zm1-2.42c5-2.86,11.05-8.14,8.61-9.58C65.77,168.78,61.16,173.9,58.6,179.15Z"/><path class="cls-4" d="M75,187c1.34.19,12.61-18.66,17-20.05,1.34-.4,2.22.38,1.72,1.21-3.75,1.09-16.42,20.94-17.66,22.7-1.41,1.71-5.4-1.23-5.21-3.07.53-3.67,3.87-15.25,3-17.39.18-1.72,3.74-1,4,.87C78.05,173.7,75,183.86,75,187Z"/><path class="cls-4" d="M98.24,171.81c-.34,1.3-1.36,2.48-3.23,6.25-3.18,6.37-4.06,10.87-1.88,10.47,3-.56,9.9-10,11.37-12.51a.78.78,0,0,1,1.22.72c-1.2,3.43-7.13,11.25-9.82,12.94a4.92,4.92,0,0,1-6.57-.83c-1.27-1.49-1.35-4.69,1.21-10.18,2.22-4.78,4.19-7.07,4.38-8.67C95.59,169.06,98.59,170.22,98.24,171.81Zm0-10.13c1.35-1,3.42-1.15,4.52-.14.78.66.26,1.9-.52,2.55a5.29,5.29,0,0,1-3.8.85C97.08,164.75,96.82,162.73,98.22,161.68Z"/><path class="cls-4" d="M113.73,178.36c1.92-2.24,4.36-7.43,1.86-8.28-1.88-.67-5,2.85-7.93,8.22-1.42,2.59-4.28,10.27-.5,11.19,4.62,1.11,13.36-9.18,15.79-13.54.45-.47,1.11.37,1.06.6-1.55,4-7.3,11.91-12.4,14.35-3.42,1.62-9.53-.68-10-4.13-.89-6.23,4.54-15.6,9.25-17.92,2.24-1.17,5-.37,7.07.6a2.51,2.51,0,0,1,2.43,2.51c-.18,1.83-3.4,6-5,7.06C114.33,179.66,113.34,179.18,113.73,178.36Z"/><path class="cls-4" d="M130.27,168.79c-4.21,8.91-5.52,11.8-6.94,14.81,2-2.65,10.5-14.36,13.63-15.22,2.74-.75,4.94,2.59,4.19,4.72-1.6,4.61-7.4,16.11-4.1,15.84,2.17-.16,8.49-8.27,11.21-12.69.73-.59,1.17.13,1.05,1.07-2.39,4.43-6.73,10.49-9.43,12.65-3.2,2.58-7.19-.24-7.5-3-.22-5.51,6.44-15.34,4.89-15.48-2.9-.26-14.77,16.63-15.34,18.41-.91,1.88-4.63,0-4.22-1.52.69-2.55,3.88-9.39,8.82-19.77,3-6.31,5.75-12.15,6.15-13.81.57-1.18,3.45.92,3.1,2.34C135.55,158.18,134.19,160.29,130.27,168.79Z"/><path class="cls-4" d="M149.26,182.3a8.08,8.08,0,0,0-.53,3.08c.08,2.6.58,3.67,2.47,3.87,2.45.26,7-3.37,9.48-6.78.57-.47,1.06-.11,1,.72-2.1,4.06-5,7.18-6.93,8-3.08,1.28-8.41-1.26-9.32-5.12-1.28-5.53,4.32-15.25,9-17.58,3.86-1.92,8.51,1.62,8,4.23S153.74,180.21,149.26,182.3Zm1-2.48c5.1-2.8,11.17-7.78,8.51-9.4C157.4,169.58,152.79,174.75,150.28,179.82Z"/></g></svg>