<svg xmlns="http://www.w3.org/2000/svg" viewBox="0 0 150 155"><defs><style>.cls-1{fill:#a5c1b2;}.cls-2{fill:none;stroke:#fff;stroke-miterlimit:10;stroke-width:6px;}.cls-3{fill:#fff;}</style></defs><g id="family_of_eateries" data-name="family of eateries"><circle class="cls-1" cx="75" cy="77.9" r="74.12"/><circle class="cls-2" cx="75" cy="77.3" r="67.76"/><path class="cls-3" d="M51,45.29c-.07.79-.11,1.56-.13,2.3s0,1.3,0,1.7,0,.65,0,1,0,.56,0,.76h-.54a9.78,9.78,0,0,0-1.12-3.1,4.52,4.52,0,0,0-1.56-1.6,3.54,3.54,0,0,0-1.71-.46h-.31a3,3,0,0,0-.92.1.65.65,0,0,0-.42.42,3.28,3.28,0,0,0-.11,1v12a4.09,4.09,0,0,0,.2,1.44,1.1,1.1,0,0,0,.78.63,7,7,0,0,0,1.66.14v.55l-2.11,0-2.79,0-2.19,0-2.07,0v-.48a3.58,3.58,0,0,0,1.09-.19.78.78,0,0,0,.48-.57,5,5,0,0,0,.12-1.28V47.81a5,5,0,0,0-.12-1.29.87.87,0,0,0-.49-.58,3.2,3.2,0,0,0-1.08-.17v-.48l3,.05,3,0h4.79Q49.86,45.34,51,45.29ZM47.5,53.43v.48h-4v-.48Zm.7-3.14c-.07.9-.1,1.6-.09,2.07s0,.92,0,1.31,0,.84,0,1.31.05,1.17.12,2.07h-.55a4.46,4.46,0,0,0-.58-1.59A3.33,3.33,0,0,0,46,54.33a3,3,0,0,0-1.59-.42v-.48a2.5,2.5,0,0,0,1.57-.5,4.29,4.29,0,0,0,1.1-1.22,5,5,0,0,0,.57-1.42Z"/><path class="cls-3" d="M54.6,62.32a2.87,2.87,0,0,1-2.34-.87,3,3,0,0,1-.73-2A2.84,2.84,0,0,1,52,57.77a3.52,3.52,0,0,1,1.18-1.05A9.23,9.23,0,0,1,54.7,56l1.53-.53a4.46,4.46,0,0,0,1.18-.61,1.09,1.09,0,0,0,.46-.89V51.89a3,3,0,0,0-.14-.84,1.68,1.68,0,0,0-.48-.78,1.51,1.51,0,0,0-1.08-.34,2.46,2.46,0,0,0-.72.11,1.93,1.93,0,0,0-.61.3,2.31,2.31,0,0,1,1.21.87,2.08,2.08,0,0,1,.39,1.22,1.84,1.84,0,0,1-.67,1.5,2.39,2.39,0,0,1-1.57.55,1.88,1.88,0,0,1-1.48-.59,2.16,2.16,0,0,1-.52-1.48,2.06,2.06,0,0,1,.37-1.25,3.37,3.37,0,0,1,1.1-.94,5.2,5.2,0,0,1,1.72-.58,11.7,11.7,0,0,1,2.09-.18,9.91,9.91,0,0,1,2.17.22,3.41,3.41,0,0,1,1.72,1A2.53,2.53,0,0,1,62,52a12.24,12.24,0,0,1,.14,2v6.38a2.39,2.39,0,0,0,.09.81.29.29,0,0,0,.29.22.65.65,0,0,0,.37-.12l.35-.24.24.41a3.33,3.33,0,0,1-1.3.66,5.83,5.83,0,0,1-1.63.22,2.85,2.85,0,0,1-2.06-.55,2,2,0,0,1-.56-1.26,4.1,4.1,0,0,1-1.29,1.3A3.78,3.78,0,0,1,54.6,62.32ZM57,60.41a1.36,1.36,0,0,0,.47-.08,1.38,1.38,0,0,0,.42-.32V55a2.76,2.76,0,0,1-.6.75c-.24.22-.47.45-.7.69a3.07,3.07,0,0,0-.57.91,3.38,3.38,0,0,0-.23,1.37A2,2,0,0,0,56.11,60,1.1,1.1,0,0,0,57,60.41Z"/><path class="cls-3" d="M73.32,49.46a4.51,4.51,0,0,1,1.73.27,2.46,2.46,0,0,1,1,.68,2.69,2.69,0,0,1,.53,1.14,9,9,0,0,1,.16,1.93v6.46a2.64,2.64,0,0,0,.24,1.35,1,1,0,0,0,.86.36v.5l-1.35-.06-1.75,0c-.62,0-1.22,0-1.81,0l-1.33.06v-.5a.69.69,0,0,0,.67-.36,3.36,3.36,0,0,0,.19-1.35V52.2a3.22,3.22,0,0,0-.1-.84.92.92,0,0,0-.3-.5.8.8,0,0,0-.53-.17,1.71,1.71,0,0,0-.82.22,1.65,1.65,0,0,0-.65.61,1.68,1.68,0,0,0-.25.89v7.53A3.36,3.36,0,0,0,70,61.29a.69.69,0,0,0,.67.36v.5l-1.23-.06q-.81,0-1.68,0l-2,0-1.55.06v-.5a1.3,1.3,0,0,0,1-.36,2.2,2.2,0,0,0,.3-1.35V52.39a3.38,3.38,0,0,0-.29-1.59,1.1,1.1,0,0,0-1-.51v-.5c.51.05,1,.07,1.48.07.79,0,1.54,0,2.23-.08s1.33-.14,1.91-.25v1.71a3.26,3.26,0,0,1,1.46-1.37A5.06,5.06,0,0,1,73.32,49.46Zm7.17,0a4.51,4.51,0,0,1,1.73.27,2.46,2.46,0,0,1,1,.68,2.81,2.81,0,0,1,.53,1.14,9,9,0,0,1,.16,1.93v6.46a2.2,2.2,0,0,0,.3,1.35,1.28,1.28,0,0,0,1,.36v.5l-1.45-.06-1.89,0c-.62,0-1.22,0-1.81,0l-1.33.06v-.5a.68.68,0,0,0,.66-.36,3.19,3.19,0,0,0,.19-1.35V52.2a2.52,2.52,0,0,0-.11-.84,1,1,0,0,0-.37-.5,1.24,1.24,0,0,0-.68-.17,1.63,1.63,0,0,0-1.18.56,2,2,0,0,0-.58,1.3l-.17-.95a3.43,3.43,0,0,1,1.68-1.7A5.75,5.75,0,0,1,80.49,49.46Z"/><path class="cls-3" d="M91.59,49.53V59.94a2.2,2.2,0,0,0,.3,1.35,1.26,1.26,0,0,0,1,.36v.5l-1.43-.06q-.94,0-1.95,0l-2,0L86,62.15v-.5a1.26,1.26,0,0,0,1-.36,2.2,2.2,0,0,0,.3-1.35V52.39A3.4,3.4,0,0,0,87,50.8a1.1,1.1,0,0,0-1-.51v-.5c.51.05,1,.07,1.47.07.8,0,1.54,0,2.23-.08S91,49.64,91.59,49.53Zm-2.29-6a3.13,3.13,0,0,1,1.92.51,2.07,2.07,0,0,1,0,3.07,3.13,3.13,0,0,1-1.92.51,3.17,3.17,0,0,1-1.92-.51,2.09,2.09,0,0,1,0-3.07A3.17,3.17,0,0,1,89.3,43.53Z"/><path class="cls-3" d="M99.38,43.53V59.94a2.28,2.28,0,0,0,.29,1.35,1.3,1.3,0,0,0,1,.36v.5l-1.43-.06q-.94,0-2,0l-2,0-1.54.06v-.5a1.27,1.27,0,0,0,1-.36,2.2,2.2,0,0,0,.3-1.35V46.38a3.36,3.36,0,0,0-.29-1.58,1.09,1.09,0,0,0-1-.51v-.5c.5.05,1,.07,1.47.07.8,0,1.54,0,2.23-.08S98.79,43.64,99.38,43.53Z"/><path class="cls-3" d="M113.64,49.79v.5a2.2,2.2,0,0,0-.87.65A5.62,5.62,0,0,0,112,52.6l-3,8.86-1.21,2.79L102,51.62a2.6,2.6,0,0,0-.76-1.12,1.26,1.26,0,0,0-.62-.21v-.5c.64.05,1.3.08,2,.11l1.9,0c.75,0,1.39,0,1.93,0l1.53-.1v.5a6.77,6.77,0,0,0-.81.05.85.85,0,0,0-.55.22c-.11.12-.1.33,0,.63l3,7.25-.26.19,1.14-3.51a5.22,5.22,0,0,0,.29-3.58,1.83,1.83,0,0,0-1.57-1.25v-.5c.33,0,.76.06,1.28.07l1.22,0,1,0A6,6,0,0,0,113.64,49.79ZM109,61.46l-1,2.88a3.59,3.59,0,0,1-1,1.72,2.92,2.92,0,0,1-.83.4,4.64,4.64,0,0,1-1.39.17,5,5,0,0,1-1.42-.22,3.08,3.08,0,0,1-1.28-.7,1.69,1.69,0,0,1-.54-1.32,1.59,1.59,0,0,1,.65-1.33,2.62,2.62,0,0,1,1.69-.5,2.49,2.49,0,0,1,1.56.44,1.56,1.56,0,0,1,.58,1.32,1.79,1.79,0,0,1-.37,1.05,2.25,2.25,0,0,1-1.18.78l.43,0h.38a2.16,2.16,0,0,0,1.36-.47,2.76,2.76,0,0,0,.9-1.44l.84-2.59Z"/><path class="cls-3" d="M43.68,96.29c-.06.79-.1,1.56-.13,2.3s0,1.3,0,1.7,0,.65,0,.95,0,.56.05.76H43a8.67,8.67,0,0,0-.95-3.1,4.07,4.07,0,0,0-1.56-1.6,4,4,0,0,0-1.87-.46h-.31a3.06,3.06,0,0,0-.93.1.63.63,0,0,0-.42.42,3.28,3.28,0,0,0-.11,1V111.1a3.35,3.35,0,0,0,.11,1,.63.63,0,0,0,.42.42,2.72,2.72,0,0,0,.93.11h.78a3.28,3.28,0,0,0,1.66-.51,4.85,4.85,0,0,0,1.61-1.75A10.35,10.35,0,0,0,43.52,107h.54c0,.57-.07,1.3-.07,2.19,0,.39,0,1,0,1.7s.06,1.51.14,2.3c-.81,0-1.72-.05-2.74-.06H33.36c-1.07,0-2.07,0-3,.06v-.48a3.52,3.52,0,0,0,1.09-.19.78.78,0,0,0,.48-.57,5.13,5.13,0,0,0,.12-1.29V98.81a5.12,5.12,0,0,0-.12-1.3.85.85,0,0,0-.49-.57,3.32,3.32,0,0,0-1.08-.18v-.47l3,0,3,0h4.78Q42.58,96.34,43.68,96.29Zm-3.45,8.14v.48h-4v-.48Zm.69-3.14c-.06.9-.09,1.59-.08,2.07s0,.91,0,1.31,0,.83,0,1.31.06,1.17.12,2.07h-.55a4.27,4.27,0,0,0-.58-1.59,3.22,3.22,0,0,0-1.13-1.13,3,3,0,0,0-1.6-.42v-.48a2.48,2.48,0,0,0,1.57-.5,4.14,4.14,0,0,0,1.1-1.22,4.5,4.5,0,0,0,.57-1.42Z"/><path class="cls-3" d="M48.78,113.32a2.91,2.91,0,0,1-2.35-.87,3.07,3.07,0,0,1-.72-2,2.83,2.83,0,0,1,.45-1.66,3.43,3.43,0,0,1,1.18-1,8.78,8.78,0,0,1,1.53-.68c.54-.18,1.06-.36,1.54-.54a4.33,4.33,0,0,0,1.18-.6A1.08,1.08,0,0,0,52,105v-2.12a2.9,2.9,0,0,0-.13-.83,1.7,1.7,0,0,0-.49-.78,1.48,1.48,0,0,0-1.07-.34,2.53,2.53,0,0,0-.73.11,1.88,1.88,0,0,0-.6.3,2.35,2.35,0,0,1,1.21.87,2.07,2.07,0,0,1,.38,1.22,1.83,1.83,0,0,1-.66,1.5,2.4,2.4,0,0,1-1.58.55,1.88,1.88,0,0,1-1.47-.59,2.17,2.17,0,0,1-.53-1.48,2.12,2.12,0,0,1,.37-1.25,3.53,3.53,0,0,1,1.11-.94,5.46,5.46,0,0,1,1.71-.59,11.91,11.91,0,0,1,2.1-.17,9.91,9.91,0,0,1,2.17.22,3.27,3.27,0,0,1,1.71,1,2.47,2.47,0,0,1,.65,1.31,12.24,12.24,0,0,1,.14,2v6.38a2.79,2.79,0,0,0,.08.81.31.31,0,0,0,.3.22.65.65,0,0,0,.37-.12l.34-.24.24.4a3.15,3.15,0,0,1-1.3.67,5.78,5.78,0,0,1-1.63.22,2.87,2.87,0,0,1-2.06-.55,2,2,0,0,1-.56-1.26,3.94,3.94,0,0,1-1.28,1.29A3.71,3.71,0,0,1,48.78,113.32Zm2.38-1.91a1.3,1.3,0,0,0,.46-.08A1.17,1.17,0,0,0,52,111v-5a2.92,2.92,0,0,1-.59.75c-.24.22-.48.45-.71.69a3.07,3.07,0,0,0-.57.91A3.54,3.54,0,0,0,50,109.7a2,2,0,0,0,.34,1.33A1.14,1.14,0,0,0,51.16,111.41Z"/><path class="cls-3" d="M63.83,96.93v3.86h2.34v.48H63.83v9.88a1,1,0,0,0,.17.65.65.65,0,0,0,.54.21,1.46,1.46,0,0,0,.62-.16,1.8,1.8,0,0,0,.67-.53l.36.28A3.94,3.94,0,0,1,64.87,113a3.86,3.86,0,0,1-2.06.51,4.47,4.47,0,0,1-1.42-.2,2.5,2.5,0,0,1-1-.61,2.36,2.36,0,0,1-.66-1.29,11,11,0,0,1-.15-2v-8.09H57.73v-.48h1.81V98a9.65,9.65,0,0,0,2.3-.25A7.41,7.41,0,0,0,63.83,96.93Z"/><path class="cls-3" d="M72.88,100.46a4.39,4.39,0,0,1,3.3,1.22,5.77,5.77,0,0,1,1.2,4.11H69.93l-.05-.45h4a14.85,14.85,0,0,0-.09-2.16,5.9,5.9,0,0,0-.38-1.58c-.18-.4-.41-.6-.72-.6s-.77.34-1,1a11.85,11.85,0,0,0-.53,3.46l.1.19a3.87,3.87,0,0,0,0,.48v.5a6.43,6.43,0,0,0,.42,2.59,2.69,2.69,0,0,0,1.05,1.29,2.53,2.53,0,0,0,1.27.36,4.92,4.92,0,0,0,1.29-.25,3.33,3.33,0,0,0,1.59-1.35l.41.14a7.06,7.06,0,0,1-.92,1.9,5.15,5.15,0,0,1-1.63,1.55,4.66,4.66,0,0,1-2.43.6,6.06,6.06,0,0,1-2.77-.62,4.43,4.43,0,0,1-2-2,8.49,8.49,0,0,1-.74-3.84,7.58,7.58,0,0,1,.81-3.73,5.05,5.05,0,0,1,2.2-2.12A7.05,7.05,0,0,1,72.88,100.46Z"/><path class="cls-3" d="M87,100.46a2.17,2.17,0,0,1,1.33.36,2,2,0,0,1,.67.93,3.7,3.7,0,0,1,.19,1.11,2.36,2.36,0,0,1-.61,1.7,2.11,2.11,0,0,1-1.58.64,2.32,2.32,0,0,1-1.59-.48,1.57,1.57,0,0,1-.53-1.24,2.37,2.37,0,0,1,.34-1.33,3,3,0,0,1,.87-.88,1.67,1.67,0,0,0-.76.16,2.22,2.22,0,0,0-.7.49,2.42,2.42,0,0,0-.52.74,2.22,2.22,0,0,0-.19.89v7.15a2,2,0,0,0,.48,1.54,2.42,2.42,0,0,0,1.57.41v.5l-1.63-.06c-.72,0-1.46,0-2.23,0s-1.43,0-2.16,0l-1.65.06v-.5a1.3,1.3,0,0,0,1-.36,2.21,2.21,0,0,0,.3-1.36v-7.55a3.36,3.36,0,0,0-.29-1.58,1.1,1.1,0,0,0-1-.51v-.5c.51,0,1,.07,1.48.07.79,0,1.54,0,2.23-.08s1.33-.14,1.91-.25v1.71a3.18,3.18,0,0,1,.77-1,2.83,2.83,0,0,1,1-.58A4,4,0,0,1,87,100.46Z"/><path class="cls-3" d="M95.34,100.53v10.4a2.21,2.21,0,0,0,.3,1.36,1.26,1.26,0,0,0,1,.36v.5l-1.43-.06c-.63,0-1.28,0-1.95,0s-1.34,0-2,0l-1.55.06v-.5a1.26,1.26,0,0,0,1-.36,2.21,2.21,0,0,0,.3-1.36v-7.55a3.38,3.38,0,0,0-.28-1.58,1.1,1.1,0,0,0-1-.51v-.5c.51,0,1,.07,1.47.07.8,0,1.54,0,2.23-.08S94.75,100.64,95.34,100.53Zm-2.29-6A3.13,3.13,0,0,1,95,95a2.07,2.07,0,0,1,0,3.07,3.13,3.13,0,0,1-1.92.51,3.17,3.17,0,0,1-1.92-.51,2.09,2.09,0,0,1,0-3.07A3.17,3.17,0,0,1,93.05,94.53Z"/><path class="cls-3" d="M103.94,100.46a4.38,4.38,0,0,1,3.29,1.22c.81.82,1.21,2.19,1.21,4.11H101l0-.45h4a16.4,16.4,0,0,0-.09-2.16,5.51,5.51,0,0,0-.39-1.58c-.17-.4-.41-.6-.71-.6s-.78.34-1,1a11.93,11.93,0,0,0-.52,3.46l.09.19c0,.16,0,.32,0,.48v.5a6.43,6.43,0,0,0,.42,2.59,2.62,2.62,0,0,0,1,1.29,2.56,2.56,0,0,0,1.28.36,4.86,4.86,0,0,0,1.28-.25,3.35,3.35,0,0,0,1.6-1.35l.4.14a7,7,0,0,1-.91,1.9,5.25,5.25,0,0,1-1.63,1.55,4.66,4.66,0,0,1-2.43.6,6.1,6.1,0,0,1-2.78-.62,4.52,4.52,0,0,1-2-2,8.5,8.5,0,0,1-.73-3.84,7.58,7.58,0,0,1,.8-3.73,5.13,5.13,0,0,1,2.21-2.12A7,7,0,0,1,103.94,100.46Z"/><path class="cls-3" d="M114.56,100.46a6.77,6.77,0,0,1,1.84.22,5.92,5.92,0,0,1,1.16.42c.55.33.9.13,1-.62h.48c0,.46-.06,1-.07,1.68s0,1.53,0,2.61h-.47a7.12,7.12,0,0,0-.42-1.74,3.62,3.62,0,0,0-.93-1.43,2.2,2.2,0,0,0-1.58-.57,1.49,1.49,0,0,0-1,.35,1.25,1.25,0,0,0-.41,1,2.05,2.05,0,0,0,.43,1.27,5.65,5.65,0,0,0,1.1,1.08c.44.34.89.7,1.33,1.08a13.49,13.49,0,0,1,1.83,1.76,3.37,3.37,0,0,1,.74,2.27,3,3,0,0,1-.65,1.9,4.34,4.34,0,0,1-1.74,1.3,6.07,6.07,0,0,1-2.42.46,5.22,5.22,0,0,1-1.45-.18,3.63,3.63,0,0,1-1-.41,5.85,5.85,0,0,0-.66-.3,1.48,1.48,0,0,0-.53-.11.5.5,0,0,0-.41.25,2.29,2.29,0,0,0-.26.59H110c0-.51.05-1.13.07-1.86s0-1.7,0-2.91h.48a7.74,7.74,0,0,0,.56,2.24,4,4,0,0,0,1.07,1.54,2.26,2.26,0,0,0,1.51.56,1.57,1.57,0,0,0,1-.32,1.2,1.2,0,0,0,.41-1,2.55,2.55,0,0,0-.63-1.76,19.53,19.53,0,0,0-1.58-1.58q-.72-.66-1.35-1.29a6.18,6.18,0,0,1-1-1.39,3.48,3.48,0,0,1-.41-1.68,2.79,2.79,0,0,1,.63-1.83,4.08,4.08,0,0,1,1.66-1.18A5.69,5.69,0,0,1,114.56,100.46Z"/><path class="cls-3" d="M87.22,70.82a13.85,13.85,0,0,1-3.64,4.25,24.23,24.23,0,0,1-3.86,2.65c-.94,1.25-1.93,2.45-2.87,3.69,0,0,.09.13.13.17a6.66,6.66,0,0,0,3.43-.21,18,18,0,0,0,2-.6A16.63,16.63,0,0,0,84.09,80a.35.35,0,0,1,.39.56,5.11,5.11,0,0,1-1.89,1c-.72.25-1.45.47-2.18.68a8.32,8.32,0,0,1-2.92.22s-.08,0-.13,0l.13.52a8.51,8.51,0,0,1-.13,2.61,7.87,7.87,0,0,1-2.7,4.5c-.64.51-1.45,1.16-2.31.94a1.55,1.55,0,0,1-1.11-1.54,5.27,5.27,0,0,1,.55-2.31c.39-.9.77-1.8,1.2-2.66a32.21,32.21,0,0,1,2.53-3.77c-.21.08-.43.21-.68.3A13.16,13.16,0,0,1,71,82.14c-.17,0-.34,0-.51,0a.64.64,0,0,0-.13.22,5,5,0,0,1-2.49,2,1.39,1.39,0,0,1-1.76-1.75,5.09,5.09,0,0,1,1-1.81,1.84,1.84,0,0,1-.47-1.8,2.06,2.06,0,0,1,1.93-1.45,2.59,2.59,0,0,1,2.23,1.63,3.28,3.28,0,0,1,0,2.1,8.44,8.44,0,0,0,2.27-.48,8.58,8.58,0,0,0,4.07-2.31.4.4,0,0,1,.17-.09c1-1.2,2-2.31,3.09-3.42,1.46-1.55,2.92-3.13,4.42-4.68.51-.55,1.2-1.28,2-1.28a.75.75,0,0,1,.69.6A2.63,2.63,0,0,1,87.22,70.82ZM69.44,82.05a4.9,4.9,0,0,1-1.51-.51,6,6,0,0,0-.72,1.37c-.13.47.12.64.55.51a3.31,3.31,0,0,0,1.07-.68A5,5,0,0,0,69.44,82.05Zm-1.76-1.76c.08-.08.21-.17.3-.25.43-.39,1.11.25.64.68a1.09,1.09,0,0,1-.13.17,3.14,3.14,0,0,0,1.37.43,1.32,1.32,0,0,0,.18-.55,1.92,1.92,0,0,0-.78-2.06,1.21,1.21,0,0,0-1.75.38A1,1,0,0,0,67.68,80.29Zm9,3.18a3.77,3.77,0,0,0-.22-1.2s-.08,0-.17-.09c-.6.86-1.2,1.72-1.75,2.66A15,15,0,0,0,72.35,89c-.09.43-.13,1.2.56,1.07A4.08,4.08,0,0,0,74.58,89a7.34,7.34,0,0,0,1.93-3.47A6.55,6.55,0,0,0,76.68,83.47Zm9.9-13c.09-.17.13-.39.21-.56a.28.28,0,0,0-.17,0,2.62,2.62,0,0,0-.94.64c-.6.61-1.2,1.29-1.76,1.93-1,1.2-2,2.4-3,3.65.73-.52,1.42-1,2.06-1.59A13.62,13.62,0,0,0,86.58,70.44Z"/></g></svg>