<?xml version="1.0" encoding="utf-8"?>
<!-- Generator: Adobe Illustrator 25.2.0, SVG Export Plug-In . SVG Version: 6.00 Build 0)  -->
<svg version="1.1" xmlns="http://www.w3.org/2000/svg" xmlns:xlink="http://www.w3.org/1999/xlink" x="0px" y="0px"
	 viewBox="0 0 200 150" style="enable-background:new 0 0 200 150;" xml:space="preserve">
<style type="text/css">
	.st0{fill:#A5C1B2;}
	.st1{fill:none;stroke:#000000;stroke-miterlimit:10;}
	.st2{fill:none;stroke:#0C0B0E;stroke-miterlimit:10;}
	.st3{fill:none;stroke:#000000;stroke-width:0.5;stroke-miterlimit:10;}
	.st4{fill:none;stroke:#737444;stroke-miterlimit:10;}
	.st5{fill:none;stroke:#D5B092;stroke-miterlimit:10;}
	.st6{fill:#D0E1D8;}
	.st7{fill:#D0DED7;}
	.st8{fill:#DBC2B2;}
	.st9{fill:#F0CBA3;}
	.st10{fill:#C1BFAB;}
	.st11{fill:none;stroke:#C1BFAB;stroke-width:4;stroke-miterlimit:10;}
	.st12{fill:none;stroke:#A8BAAE;stroke-width:3;stroke-miterlimit:10;}
	.st13{fill:#A8BAAE;}
	.st14{fill:none;}
	.st15{fill:#7E5D3C;}
	.st16{font-family:'BebasNeueRounded-Regular';}
	.st17{font-size:36.0981px;}
	.st18{letter-spacing:1.1;}
	.st19{fill:#D4B092;}
	.st20{fill:#FFFFFF;}
	.st21{fill:none;stroke:#FFFFFF;stroke-width:6;stroke-miterlimit:10;}
</style>
<g id="five_vines">
	<g id="Layer_3">
	</g>
</g>
<g id="ceviche_logo_1_">
</g>
<g id="five_vines_1_">
	<g>
		<g>
			<path class="st8" d="M100.8,108.4c-11.7,18.3-21.6,11.3-38.6,19.5c-19.1,9.2-49.8-13.6-36.7-30.9c19.8-26.1,28.9-39.6,43-34
				C88.5,71,110.4,93.5,100.8,108.4z"/>
			<path class="st9" d="M151.6,74.4c4.5-28.6-18.7-35.2-36.8-51.7c-14.3-13-45.5,9.2-52.3,30.7c-4.7,15,22.6,46,41.9,45.3
				C129.1,97.9,147.6,99.8,151.6,74.4z"/>
			<path class="st10" d="M147.7,92.4c-1.2,8.9-6.9,11.3-17.4,13.8c-8.3,1.9-14.3-9.5-13.1-18.4c1.2-8.9,8.9-14.3,17.4-13.8
				C143.9,74.6,148.9,83.5,147.7,92.4z"/>
			<path class="st11" d="M148.3,76.9c2.5-3.8,2.4-6.8,2.4-6.8s-0.3-2.2-1-2.3s-4.3,1.1-7.7,5.3c-3.4,4.2-2.1,10.2-2.1,10.2
				s1,0.8,5-2.7C148.8,77,148.3,76.9,148.3,76.9z"/>
			<path class="st11" d="M159.3,59.8c3.8-4.1,5.1-4.8,5.1-4.8s1.8-1.4,2.9,0.4s-1.6,7.3-1.6,7.3s-1.2,2.7-4.2,4.7
				C158.3,69.5,155.4,63.9,159.3,59.8z"/>
			<path class="st11" d="M177.2,57.1c6-4.2,7.2-3.6,7.2-3.6s2.2-0.7,2.1,2c-0.1,2.6-4.4,9.2-8.4,9.7
				C174.1,65.6,171.2,61.2,177.2,57.1z"/>
			<path class="st11" d="M174.6,88c0,0-1.2-6.8,3.7-13.2c4.9-6.3,8.2-5.1,8.2-5.1s2.4,0.4,2,2.4c-0.5,2.4-3.6,8.2-4.8,10.4
				c-0.9,1.7-1.2,2.6-2.4,4.6c-1.3,2.2-2.2,3.1-3.4,3.4c-0.3,0.1-1.2,0.3-2.1-0.2C174.8,89.6,174.7,88.2,174.6,88z"/>
			<path class="st11" d="M160.2,92.9c0,0-4.1-1.8,0.7-10.6s8-10.6,8-10.6s2.8-1.2,3.1,1.3c0.3,2.5-1.7,9.1-1.7,9.1s-2.5,7.6-4.3,10
				C163.7,95,160.2,92.9,160.2,92.9z"/>
			<path class="st11" d="M137.2,108.5c-0.5-0.6-1.4-0.9-2.1-0.6c-1.3,0.5-3.4,1.8-4.6,4.6c-1.9,4.4-3.1,7.9-2.3,9.4
				c0.3,0.6,0.6,1,0.9,1.3c0.6,0.6,1.5,0.7,2.2,0.3c0.9-0.5,2.2-1.5,4-3.8c1.8-2.4,2.7-5.1,3-7C138.6,111.2,138.2,109.6,137.2,108.5
				L137.2,108.5z"/>
			<path class="st11" d="M155.2,104.7c-0.5-0.6-1.4-0.9-2.1-0.6c-1.3,0.5-3.4,1.8-4.6,4.6c-1.9,4.4-3.1,7.9-2.3,9.4
				c0.3,0.6,0.6,1,0.9,1.3c0.6,0.6,1.5,0.7,2.2,0.3c0.9-0.5,2.2-1.5,4-3.8c1.8-2.4,2.7-5.1,3-7C156.6,107.4,156.2,105.8,155.2,104.7
				L155.2,104.7z"/>
			<path class="st11" d="M144.5,98.9c0,0-1.3-5.8,1.4-10.3c2.4-4,5.2-6.7,5.5-6.6c0,0,2.1-2.3,3.1-0.9c1,1.3,0.1,5.2,0.1,5.2
				s-0.6,3.4-2.6,7.3c-1.5,3-1.6,3-4,5.1C145.8,100.6,144.5,98.9,144.5,98.9z"/>
			<path class="st12" d="M41.4,47.5c-6.6,48.7-2.4,89.5,9.4,91.3"/>
			<g>
				<path class="st13" d="M48.1,30.5c-0.2-1.2-0.8-2.4-1.8-2.9c-1.7-0.9-4,0.4-4.8,2.2c-0.9,1.8-0.8,4-0.7,6
					c0.2,3.9,0.4,7.8,0.6,11.7c3.1-3.9,5.3-8.5,6.5-13.4C48,33,48.3,31.8,48.1,30.5z"/>
				<g>
					<path class="st13" d="M49.5,30.2c-0.4-2.4-2.2-3.8-4.6-3.4c-2.3,0.4-4.4,1.7-5.2,3.9c-0.9,2.5-0.5,5.3-0.3,7.9
						c0.2,3.1,0.3,6.3,0.5,9.4c0,0.7,2.5-0.2,2.8-0.5c1.9-2.5,3.5-5.1,4.8-8C48.6,36.7,49.9,33.2,49.5,30.2c-0.1-0.6-3,0-2.9,0.8
						c0.3,3-1,6.3-2.1,9c-1.2,2.8-2.7,5.4-4.5,7.7c0.9-0.2,1.8-0.3,2.8-0.5c-0.2-4.5-0.6-9-0.6-13.4c0-1.8,0.2-4,1.6-5.4
						c0.2-0.2,0.3-0.3,0.5-0.4c0.3-0.1-0.1,0,0,0c0.4,0,0.8,0.3,1.1,0.5c0.8,0.6,1.1,1.6,1.3,2.5C46.8,31.6,49.7,30.9,49.5,30.2z"/>
				</g>
			</g>
			<g>
				<path class="st13" d="M40.2,57.4c3.7-3.5,8-6.3,12.6-8.3c0.6-0.3,1.3-0.5,1.9-0.6c0.7,0,1.4,0.2,1.8,0.8c0.5,0.7,0.4,1.6,0,2.3
					c-0.4,0.7-1,1.2-1.7,1.7c-4.1,2.9-9.2,4.2-14.1,3.7"/>
				<g>
					<path class="st13" d="M41.3,57.5c2.2-2,4.5-3.9,7.1-5.5c1.2-0.7,2.4-1.4,3.6-2c1-0.5,2.6-1.6,3.2-0.1c0.6,1.5-1,2.6-2,3.3
						c-1.1,0.7-2.3,1.3-3.5,1.8c-2.6,1-5.4,1.3-8.1,1c-0.7-0.1-1.5,0.1-2,0.5c-0.4,0.4-0.4,0.9,0.3,0.9c5.8,0.6,12-0.9,16.6-4.5
						c1.1-0.8,2-2,1.9-3.4c-0.1-1.3-1.4-2-2.6-2.1C54,47.6,52.5,48.3,51,49c-1.3,0.6-2.6,1.3-3.9,2.1c-2.9,1.7-5.6,3.8-8.1,6.1
						c-0.4,0.4-0.3,0.8,0.3,0.9C39.9,58.2,40.9,58,41.3,57.5L41.3,57.5z"/>
				</g>
			</g>
			<g>
				<path class="st13" d="M39.4,60.7c-2.2-1.2-4.2-2.6-6.1-4.3c-1-0.9-1.9-1.8-2.5-3s-0.8-2.7-0.2-3.9c0.6-1.2,2-2,3.2-1.5
					c1.2,0.5,1.7,1.9,2.1,3.1c1,3.1,2.1,6.2,3.1,9.4"/>
				<g>
					<path class="st13" d="M40.6,60c-1.8-1-3.5-2.1-5.1-3.4c-1.5-1.2-3.1-2.6-3.6-4.5c-0.2-0.8-0.3-1.8,0.2-2.5
						c0.1-0.3,0.4-0.5,0.6-0.7c-0.2,0.1,0,0,0.1,0c0,0-0.1,0-0.1,0c-0.1,0,0.1,0,0.1,0c1.4,1,1.7,2.9,2.3,4.5c0.8,2.5,1.7,5,2.5,7.6
						c0.4,1.2,3.3,0.3,2.9-0.8c-0.9-2.6-1.8-5.3-2.7-7.9c-0.6-1.9-1.2-4.5-3.5-5.1c-2.4-0.6-5,1.1-5.5,3.5c-0.4,2.4,1,4.5,2.6,6
						c2,1.9,4.4,3.6,6.8,4.9c0.6,0.3,1.5,0.2,2.1-0.2C40.8,61,41.2,60.3,40.6,60L40.6,60z"/>
				</g>
			</g>
			<g>
				<path class="st13" d="M39.7,72.9c2.2-3.5,4.9-6.7,8-9.4c0.8-0.7,1.6-1.3,2.5-1.6c0.9-0.3,2.1-0.1,2.7,0.7c0.8,1,0.6,2.5-0.1,3.6
					c-0.7,1-1.9,1.7-2.9,2.2c-3.5,1.9-7.1,3.8-10.6,5.8"/>
				<g>
					<path class="st13" d="M41,73c1.2-2,2.6-3.8,4.1-5.6c0.7-0.8,1.5-1.6,2.3-2.4c0.8-0.7,1.6-1.6,2.5-2.1c0.6-0.4,1.3-0.2,1.7,0.5
						c0.5,0.8,0.3,1.9-0.1,2.6c-0.5,0.9-1.4,1.4-2.3,1.9c-1.1,0.6-2.1,1.2-3.2,1.7c-2.6,1.4-5.2,2.8-7.8,4.2
						c-0.4,0.2-0.8,0.8-0.3,1.1c0.6,0.3,1.5,0,2-0.3c2.7-1.5,5.4-2.9,8.1-4.4c2.2-1.2,5.3-2.4,6.4-4.9c0.4-1,0.4-2.2-0.2-3.1
						c-0.7-1-2.2-1.3-3.4-1.1c-2.8,0.3-5,2.6-6.9,4.5c-2.2,2.2-4.1,4.7-5.8,7.4c-0.4,0.6,0.3,0.8,0.8,0.8C39.7,73.8,40.7,73.5,41,73
						L41,73z"/>
				</g>
			</g>
			<g>
				<path class="st13" d="M37.6,72.8c-3.6-1.3-7-3.5-9.7-6.4c-0.7-0.8-1.5-1.8-1.3-2.9c0.2-1.2,1.5-2,2.7-1.8s2.2,0.9,3.1,1.7
					c2.5,2.2,4.4,5.1,5.7,8.3"/>
				<g>
					<path class="st13" d="M38.8,72.1c-3.7-1.3-7.2-3.5-9.7-6.5c-0.6-0.7-1.2-1.6-0.9-2.5c0.1-0.2,0.4-0.4,0.4-0.5c0.1-0.1,0,0,0,0
						c-0.1,0.1,0.1,0,0.1,0c0,0-0.1,0-0.2,0c0.4,0,0,0,0.2,0c0.9,0.1,1.8,0.9,2.4,1.5c0.7,0.7,1.4,1.4,2,2.1
						c1.5,1.8,2.6,3.8,3.5,5.9c0.2,0.6,1.2,0.5,1.6,0.3c0.4-0.1,1.5-0.5,1.3-1.1C38.7,69,37.5,67,36,65.1c-1.4-1.7-3.3-3.8-5.6-4.2
						c-2.1-0.4-5.5,0.9-5.2,3.5c0.1,1.1,1,2.1,1.7,2.9c0.8,0.8,1.7,1.6,2.6,2.4c2.1,1.6,4.4,2.9,6.9,3.8c0.7,0.2,1.5,0.1,2.1-0.3
						C38.9,73.1,39.5,72.4,38.8,72.1L38.8,72.1z"/>
				</g>
			</g>
			<g>
				<path class="st13" d="M38.9,81.3c2.8-3.7,6.7-6.4,11-7.6c1.3-0.4,2.9-0.5,3.7,0.6c0.5,0.8,0.3,2-0.2,2.8
					c-0.6,0.8-1.4,1.3-2.3,1.7c-3.9,2-8.1,3.3-12.4,3.8"/>
				<g>
					<path class="st13" d="M40.3,81.1c2.4-3.1,5.8-5.8,9.7-6.9c1.8-0.5,2.9,1.2,2.2,2.8c-0.5,1-1.4,1.5-2.3,1.9
						c-1,0.5-2.1,1-3.2,1.4c-2.4,0.9-4.9,1.5-7.4,1.8c-0.6,0.1-1.5,0.2-1.9,0.7c-0.4,0.5,0.3,0.5,0.7,0.5c3.1-0.4,6.2-1.1,9.1-2.2
						c1.4-0.5,2.8-1.1,4.2-1.8c1.2-0.6,2.6-1.3,3.4-2.4c0.6-0.9,0.8-2.2,0.1-3.1c-0.7-0.9-2-1-3-0.9c-2.7,0.2-5.4,1.5-7.6,2.8
						c-2.6,1.5-4.9,3.6-6.7,6c-0.3,0.4,1.1,0.3,1.2,0.3C39.2,81.7,39.9,81.5,40.3,81.1L40.3,81.1z"/>
				</g>
			</g>
			<g>
				<path class="st13" d="M37.9,87.5c-2.7-0.9-5.3-1.7-8-2.6c-0.9-0.3-1.8-0.6-2.2-1.4c-0.4-0.8-0.3-1.9,0.3-2.6
					c0.6-0.7,1.5-1,2.4-1c0.9,0,1.7,0.4,2.5,0.8c2.4,1.4,4.3,3.8,5.1,6.6"/>
				<g>
					<path class="st13" d="M38.8,86.7c-1.9-0.6-3.8-1.2-5.7-1.8c-0.8-0.3-1.7-0.5-2.5-0.8c-0.6-0.2-1.3-0.5-1.6-1.2
						c-0.3-0.6-0.2-1.4,0.3-1.9c0.1-0.1,0.2-0.2,0.3-0.2c0.1-0.1,0.1,0,0,0c-0.2,0.1,0,0,0.1,0c-0.2,0,0.1,0,0.1,0
						c0.2,0,0.4,0,0.5,0.1c1.4,0.3,2.7,1.3,3.7,2.4c1.2,1.3,2.1,2.8,2.5,4.5c0.3,1,3.2,0.3,2.9-0.8c-0.5-1.8-1.5-3.5-2.8-4.8
						c-1.3-1.4-3.1-2.6-5-2.9c-2.1-0.3-5,0.5-5.7,2.9c-0.2,0.9,0,1.9,0.7,2.6c0.7,0.7,1.7,1,2.7,1.3c2.5,0.8,5.1,1.6,7.6,2.4
						c0.6,0.2,1.6-0.1,2-0.5C39.5,87.3,39.3,86.9,38.8,86.7L38.8,86.7z"/>
				</g>
			</g>
			<g>
				<path class="st13" d="M38.8,93.4c1.3-2.6,3.1-4.8,5.3-6.6c0.5-0.4,1-0.7,1.6-0.9s1.3-0.1,1.7,0.3c0.7,0.7,0.7,1.9,0.2,2.8
					c-0.5,0.8-1.4,1.4-2.2,1.9c-2.3,1.4-4.6,2.7-6.9,4.1"/>
				<g>
					<path class="st13" d="M40.3,93.2c0.7-1.4,1.5-2.6,2.5-3.8c0.9-1,2-2.2,3.2-2.9c0.2-0.1,0.1,0-0.1,0c-0.1,0-0.3,0-0.1,0
						c0.2,0.1,0.4,0.2,0.6,0.5c0.3,0.5,0.3,1.2,0.1,1.8c-0.2,0.6-0.8,1.1-1.3,1.5c-0.6,0.4-1.4,0.8-2,1.2c-1.8,1.1-3.6,2.1-5.4,3.2
						c-0.3,0.2-0.9,0.7-0.3,0.9c0.6,0.2,1.5,0,2-0.3c1.9-1.1,3.8-2.3,5.7-3.4c1.5-0.9,3.7-1.9,4.2-3.7c0.2-0.8,0.2-1.6-0.4-2.3
						c-0.6-0.8-1.8-0.8-2.8-0.7c-2.1,0.3-3.9,1.8-5.3,3.3c-1.5,1.5-2.6,3.2-3.6,5.1c-0.3,0.5,1,0.5,1.2,0.5
						C39.2,94,40,93.8,40.3,93.2L40.3,93.2z"/>
				</g>
			</g>
			<g>
				<path class="st13" d="M37.6,100.5c-4.9-0.1-9.7-2.3-12.8-5.8c2.5-0.6,5.3-0.3,7.7,0.8c2.4,1.1,4.3,3.1,5.2,5.4"/>
				<g>
					<path class="st13" d="M38.1,99.5c-4.5-0.1-9-2.1-12-5.5c-0.4,0.5-0.7,1-1.1,1.5c4.5-1.1,9.4,1.5,11.2,5.7
						c0.3,0.6,1.1,0.7,1.7,0.5c0.4-0.1,1.5-0.7,1.2-1.3c-2.4-5.7-8.8-8.1-14.6-6.8c-0.5,0.1-1.7,0.9-1.1,1.5
						c3.4,3.8,8.5,6.1,13.6,6.2c0.7,0,1.6-0.2,1.9-0.9C39.3,100,38.7,99.5,38.1,99.5L38.1,99.5z"/>
				</g>
			</g>
			<g>
				<path class="st13" d="M39.6,107.2c1.2-2.2,2.7-4.2,4.3-6c0.5-0.5,1-1,1.6-1.3c0.6-0.3,1.3-0.4,1.9-0.1c0.9,0.5,1.2,1.9,0.8,2.9
					s-1.2,1.8-2,2.5c-2.2,1.7-4.7,3.1-7.3,3.9"/>
				<g>
					<path class="st13" d="M40.9,107.2c0.8-1.5,1.8-2.9,2.8-4.2c0.5-0.6,1-1.2,1.6-1.8c0.2-0.2,0.5-0.5,0.7-0.6c0,0,0.2-0.2,0.3-0.2
						c0,0-0.2,0-0.1,0c-0.1,0-0.1,0.1,0,0c0.1-0.1,0.1,0,0,0c1.1,0.4,1,2.1,0.5,2.9c-0.7,1.2-2.1,2.1-3.3,2.8
						c-0.7,0.5-1.5,0.9-2.2,1.2c-0.4,0.2-0.8,0.4-1.2,0.5c-0.2,0.1-0.5,0.2-0.7,0.3c-0.1,0-0.2,0.1-0.2,0.1
						c-0.5,0.2,0.3-0.1-0.2,0.1c-0.4,0.1-1.4,0.5-1.3,1.1c0.2,0.6,1.3,0.4,1.6,0.3c2-0.7,4-1.5,5.8-2.6c0.9-0.5,1.7-1.1,2.5-1.8
						c0.7-0.6,1.4-1.2,1.9-2c0.8-1.4,0.8-3.5-0.9-4.3c-1.2-0.5-2.7-0.2-3.8,0.4c-0.9,0.5-1.6,1.3-2.3,2.1c-1.5,1.7-2.9,3.6-4,5.6
						c-0.3,0.6,0.3,0.8,0.8,0.8C39.6,108,40.6,107.8,40.9,107.2L40.9,107.2z"/>
				</g>
			</g>
			<g>
				<g>
					<path class="st13" d="M37.5,108.3c-0.1,0.1-0.2,0.2-0.3,0.3c-0.1,0.1-0.1,0.2-0.1,0.3c0,0.1,0,0.2,0.1,0.3
						c0.1,0.1,0.2,0.2,0.3,0.2c0.1,0.1,0.3,0.1,0.5,0.1c0.1,0,0.2,0,0.4,0c0.3,0,0.5-0.1,0.8-0.2c0.1-0.1,0.2-0.1,0.3-0.2
						c0.2-0.1,0.3-0.2,0.4-0.4c0.1-0.1,0.2-0.2,0.3-0.3c0.1-0.1,0.1-0.2,0.1-0.3c0-0.1,0-0.2-0.1-0.3c-0.1-0.1-0.2-0.2-0.3-0.2
						c-0.1-0.1-0.3-0.1-0.5-0.1c-0.1,0-0.2,0-0.4,0c-0.3,0-0.5,0.1-0.8,0.2c-0.1,0.1-0.2,0.1-0.3,0.2
						C37.7,108,37.6,108.1,37.5,108.3L37.5,108.3z"/>
				</g>
			</g>
			<g>
				<path class="st13" d="M38.6,114.8c-2.9-1.7-6.1-3-9.4-3.7c-0.7-0.1-1.4-0.3-2-0.1c-0.7,0.2-1.3,0.7-1.4,1.4
					c-0.1,0.8,0.4,1.5,1.1,1.8c0.6,0.3,1.4,0.4,2.1,0.4c3.6,0.2,7.1,0.3,10.7,0.5"/>
				<g>
					<path class="st13" d="M40,114.3c-1.8-1.1-3.8-2-5.8-2.7c-2-0.7-4.4-1.6-6.5-1.2c-1.6,0.3-4.4,1.6-3,3.6
						c0.6,0.8,1.5,1.1,2.5,1.2c1.1,0.1,2.3,0.1,3.4,0.2c2.7,0.1,5.4,0.3,8.1,0.4c0.7,0,1.5-0.2,2-0.5c0.4-0.3,0.4-0.6-0.2-0.7
						c-2.4-0.1-4.7-0.2-7.1-0.3c-1.2-0.1-2.4-0.1-3.6-0.2c-1-0.1-2.2-0.2-2.6-1.3c-0.2-0.6,0-0.8,0.2-1.3c0.2-0.2,0.2-0.2-0.2,0
						c-0.4,0.1-0.4,0.1-0.1,0.1c0.2,0.1,0.6,0.1,0.9,0.2c1,0.2,2.1,0.5,3.1,0.9c2.1,0.7,4.1,1.6,6,2.7c0.5,0.3,1.4,0,1.9-0.1
						C39.2,115.1,40.4,114.6,40,114.3L40,114.3z"/>
				</g>
			</g>
			<g>
				<g>
					<path class="st13" d="M36.1,71.7c0.2,0.4,0.5,0.8,0.7,1.2c0,0.1,0.1,0.1,0.2,0.2c0.1,0.1,0.2,0.1,0.3,0.1c0.2,0,0.3,0,0.5,0
						c0.2,0,0.4,0,0.6-0.1c0.1,0,0.3-0.1,0.4-0.1c0.2-0.1,0.4-0.2,0.6-0.3c0.1-0.1,0.1-0.1,0.2-0.2c0.1-0.1,0.1-0.2,0.1-0.3
						c-0.2-0.4-0.5-0.8-0.7-1.2c0-0.1-0.1-0.1-0.2-0.2c-0.1-0.1-0.2-0.1-0.3-0.1c-0.2,0-0.3,0-0.5,0c-0.2,0-0.4,0-0.6,0.1
						c-0.1,0-0.3,0.1-0.4,0.1c-0.2,0.1-0.4,0.2-0.6,0.3c-0.1,0.1-0.1,0.1-0.2,0.2C36.2,71.4,36.1,71.5,36.1,71.7L36.1,71.7z"/>
				</g>
			</g>
		</g>
		<rect x="-20.7" y="72.7" class="st14" width="247.8" height="39.2"/>
		<text transform="matrix(0.9499 0 0 1 40.9609 97.9254)" class="st15 st16 st17 st18">Five Vines</text>
	</g>
</g>
<g id="hearth_and_stone">
</g>
<g id="family_of_eateries">
</g>
</svg>
