<?xml version="1.0" encoding="utf-8"?>
<!-- Generator: Adobe Illustrator 25.2.0, SVG Export Plug-In . SVG Version: 6.00 Build 0)  -->
<svg version="1.1" xmlns="http://www.w3.org/2000/svg" xmlns:xlink="http://www.w3.org/1999/xlink" x="0px" y="0px"
	 viewBox="0 0 400 300" style="enable-background:new 0 0 400 300;" xml:space="preserve">
<style type="text/css">
	.st0{fill:#A5C1B2;}
	.st1{fill:none;stroke:#000000;stroke-miterlimit:10;}
	.st2{fill:none;stroke:#0C0B0E;stroke-miterlimit:10;}
	.st3{fill:none;stroke:#000000;stroke-width:0.5;stroke-miterlimit:10;}
	.st4{fill:none;stroke:#737444;stroke-miterlimit:10;}
	.st5{fill:none;stroke:#D5B092;stroke-miterlimit:10;}
	.st6{fill:#D0E1D8;}
	.st7{fill:#D0DED7;}
	.st8{fill:#DBC2B2;}
	.st9{fill:#F0CBA3;}
	.st10{fill:#C1BFAB;}
	.st11{fill:none;stroke:#C1BFAB;stroke-width:4;stroke-miterlimit:10;}
	.st12{fill:none;stroke:#A8BAAE;stroke-width:3;stroke-miterlimit:10;}
	.st13{fill:#A8BAAE;}
	.st14{fill:none;}
	.st15{fill:#7E5D3C;}
	.st16{font-family:'BebasNeueRounded-Regular';}
	.st17{font-size:76.0163px;}
	.st18{letter-spacing:3;}
	.st19{fill:#D4B092;}
	.st20{fill:#FFFFFF;}
	.st21{fill:none;stroke:#FFFFFF;stroke-width:6;stroke-miterlimit:10;}
</style>
<g id="five_vines">
	<g id="Layer_3">
	</g>
</g>
<g id="ceviche_logo_1_">
</g>
<g id="five_vines_1_">
	<g>
		<g>
			<path class="st8" d="M194.88,214.06c-26.04,38.6-47.94,23.81-85.62,41.16c-42.25,19.46-110.44-28.6-81.41-65.01
				c43.81-54.94,64.03-83.42,95.43-71.53C167.54,135.43,216.04,182.71,194.88,214.06z"/>
			<path class="st9" d="M307.46,142.58c10-60.24-41.46-74.21-81.68-108.89C194.15,6.43,124.81,53.05,109.94,98.4
				c-10.34,31.53,50.05,96.8,92.98,95.39C257.43,192.01,298.58,196.07,307.46,142.58z"/>
			<path class="st10" d="M298.82,180.45c-2.67,18.69-15.2,23.83-38.67,29.01c-18.44,4.07-31.68-19.98-29.01-38.67
				s19.82-30.06,38.67-29.01C290.36,142.92,301.48,161.76,298.82,180.45z"/>
			<path class="st11" d="M300.02,147.74c5.59-7.97,5.4-14.41,5.4-14.41s-0.65-4.55-2.29-4.78c-1.64-0.23-9.61,2.34-17.18,11.1
				c-7.56,8.76-4.73,21.41-4.73,21.41s2.13,1.61,11.07-5.71S300.02,147.74,300.02,147.74z"/>
			<path class="st11" d="M324.39,111.85c8.45-8.59,11.3-10.01,11.3-10.01s4.07-2.91,6.35,0.91c2.28,3.81-3.51,15.27-3.51,15.27
				s-2.61,5.6-9.38,9.95S315.94,120.44,324.39,111.85z"/>
			<path class="st11" d="M364.1,106.03c13.24-8.79,15.94-7.63,15.94-7.63s4.89-1.42,4.62,4.16s-9.8,19.34-18.55,20.43
				C357.35,124.09,350.86,114.82,364.1,106.03z"/>
			<path class="st11" d="M358.5,171.26c0,0-2.71-14.4,8.14-27.76s18.24-10.81,18.24-10.81s5.23,0.94,4.35,5.04
				c-1.09,5.04-8.08,17.16-10.57,21.8c-1.92,3.58-2.65,5.54-5.24,9.63c-2.92,4.61-4.81,6.57-7.43,7.25
				c-0.71,0.18-2.72,0.7-4.62-0.38C358.91,174.62,358.54,171.66,358.5,171.26z"/>
			<path class="st11" d="M326.5,181.5c0,0-9.05-3.77,1.52-22.42c10.57-18.65,17.76-22.36,17.76-22.36s6.31-2.43,6.97,2.75
				c0.66,5.18-3.78,19.09-3.78,19.09s-5.61,16.09-9.54,20.95C334.27,185.93,326.5,181.5,326.5,181.5z"/>
			<path class="st11" d="M275.44,214.28c-1.19-1.32-3.07-1.81-4.73-1.18c-2.97,1.12-7.48,3.72-10.1,9.6
				c-4.16,9.31-6.87,16.71-5.18,19.78c0.64,1.16,1.38,2.03,2.06,2.67c1.31,1.22,3.24,1.49,4.85,0.71c1.97-0.96,4.96-3.13,8.84-7.97
				c4.1-5.12,5.92-10.7,6.72-14.7C278.54,220,277.62,216.7,275.44,214.28L275.44,214.28z"/>
			<path class="st11" d="M315.46,206.24c-1.19-1.32-3.07-1.81-4.73-1.18c-2.97,1.12-7.48,3.72-10.1,9.6
				c-4.16,9.31-6.87,16.71-5.18,19.78c0.64,1.16,1.38,2.03,2.06,2.67c1.31,1.22,3.24,1.49,4.85,0.71c1.97-0.96,4.96-3.13,8.84-7.97
				c4.1-5.12,5.92-10.7,6.72-14.7C318.56,211.96,317.64,208.66,315.46,206.24L315.46,206.24z"/>
			<path class="st11" d="M291.76,194.13c0,0-2.98-12.16,3.11-21.76c5.36-8.46,11.57-14.01,12.25-13.97c0,0,4.61-4.75,6.86-1.94
				c2.24,2.82,0.31,11.02,0.31,11.02s-1.3,7.26-5.69,15.31c-3.41,6.26-3.63,6.32-8.79,10.64
				C294.64,197.76,291.76,194.13,291.76,194.13z"/>
			<path class="st12" d="M63.09,85.95c-14.63,102.48-5.31,188.43,20.85,192.16"/>
			<g>
				<path class="st13" d="M77.96,50.19c-0.38-2.54-1.77-5.06-4.07-6.21c-3.87-1.93-8.76,0.79-10.71,4.65
					c-1.96,3.86-1.78,8.4-1.55,12.72c0.43,8.23,0.85,16.46,1.28,24.69c6.81-8.17,11.75-17.89,14.32-28.21
					C77.85,55.32,78.34,52.73,77.96,50.19z"/>
				<g>
					<path class="st13" d="M79.41,49.8c-0.57-3.38-2.76-6.51-6.35-7c-3.25-0.45-6.76,0.97-9.11,3.17c-2.78,2.6-3.69,6.41-3.86,10.09
						c-0.22,4.58,0.28,9.24,0.52,13.81c0.29,5.51,0.57,11.03,0.86,16.54c0.04,0.72,2.52-0.18,2.77-0.48
						c4.16-5.02,7.66-10.57,10.33-16.52c1.34-2.97,2.47-6.04,3.38-9.17C78.93,56.87,79.86,53.33,79.41,49.8
						c-0.08-0.61-3-0.02-2.9,0.78c0.45,3.52-0.5,7.02-1.49,10.36C74.12,64,73.01,67,71.7,69.91c-2.62,5.83-6.03,11.29-10.1,16.21
						c0.92-0.16,1.84-0.32,2.77-0.48c-0.27-5.27-0.55-10.53-0.82-15.8c-0.25-4.89-0.82-9.88-0.55-14.77
						c0.23-4.1,1.61-8.86,5.67-10.72c4.09-1.87,7.26,2.75,7.85,6.23C76.62,51.21,79.54,50.57,79.41,49.8z"/>
				</g>
			</g>
			<g>
				<path class="st13" d="M60.4,106.64c8.21-7.37,17.68-13.33,27.86-17.57c1.38-0.57,2.8-1.12,4.29-1.18s3.08,0.46,3.97,1.66
					c1.03,1.4,0.86,3.43-0.01,4.94c-0.86,1.51-2.29,2.61-3.74,3.58c-9.09,6.13-20.38,8.92-31.28,7.72"/>
				<g>
					<path class="st13" d="M61.55,106.83c7.85-7.01,16.78-12.76,26.46-16.89c2.21-0.94,5.39-2.35,7.16,0.16
						c1.61,2.28-0.1,5.09-1.92,6.59c-3.85,3.18-8.82,5.39-13.58,6.78c-5.6,1.64-11.47,2.19-17.28,1.58
						c-0.67-0.07-1.54,0.06-2.05,0.55c-0.39,0.37-0.4,0.86,0.25,0.93c11.84,1.25,24.28-1.75,33.99-8.72
						c2.16-1.55,4.25-3.73,4.08-6.59c-0.16-2.7-2.7-4.06-5.17-4.1c-3.15-0.05-6.2,1.53-8.99,2.81c-2.75,1.26-5.45,2.64-8.07,4.14
						c-6.15,3.51-11.91,7.67-17.19,12.38c-0.47,0.42-0.3,0.78,0.25,0.93C60.1,107.55,61.09,107.24,61.55,106.83L61.55,106.83z"/>
				</g>
			</g>
			<g>
				<path class="st13" d="M58.77,113.79c-4.79-2.49-9.31-5.51-13.46-8.98c-2.19-1.83-4.32-3.84-5.65-6.37s-1.76-5.67-0.5-8.24
					c1.26-2.56,4.48-4.2,7.13-3.14c2.55,1.02,3.74,3.9,4.65,6.49c2.32,6.58,4.64,13.15,6.96,19.73"/>
				<g>
					<path class="st13" d="M59.9,113.03c-3.99-2.09-7.79-4.52-11.35-7.28c-3.32-2.58-7.06-5.58-8.28-9.78
						c-0.58-2-0.6-4.29,0.51-6.12c0.85-1.39,2.49-2.52,4.17-2.07c1.74,0.47,2.86,2.18,3.58,3.72c0.93,1.99,1.57,4.14,2.3,6.21
						c1.88,5.32,3.76,10.65,5.64,15.97c0.41,1.15,3.29,0.33,2.9-0.78c-1.99-5.64-3.98-11.27-5.97-16.91
						c-1.3-3.69-2.55-9.09-7.04-10.03c-4.17-0.88-8.51,2.16-9.27,6.31c-0.89,4.9,2.35,9.16,5.8,12.21
						c4.46,3.95,9.47,7.3,14.74,10.07c0.62,0.33,1.5,0.16,2.06-0.23C60.1,114.04,60.54,113.36,59.9,113.03L59.9,113.03z"/>
				</g>
			</g>
			<g>
				<path class="st13" d="M59.36,139.48c4.88-7.47,10.92-14.19,17.83-19.85c1.68-1.38,3.48-2.72,5.58-3.29s4.59-0.21,6.03,1.42
					c1.8,2.03,1.35,5.34-0.27,7.52s-4.12,3.49-6.54,4.74c-7.85,4.05-15.71,8.1-23.56,12.15"/>
				<g>
					<path class="st13" d="M60.71,139.49c2.77-4.21,5.87-8.2,9.32-11.88c1.76-1.88,3.61-3.67,5.53-5.38c1.82-1.62,3.7-3.4,5.86-4.56
						c1.95-1.06,4.45-1.15,6.03,0.65c1.53,1.74,1.24,4.47,0.13,6.36c-1.21,2.04-3.35,3.29-5.39,4.38c-2.46,1.31-4.94,2.55-7.42,3.83
						c-5.75,2.96-11.49,5.92-17.24,8.88c-0.47,0.24-0.78,0.75-0.27,1.09c0.55,0.36,1.55-0.03,2.05-0.28
						c5.89-3.04,11.78-6.07,17.67-9.11c2.81-1.45,5.7-2.79,8.42-4.4c2.13-1.26,4.24-2.88,5.3-5.19c0.93-2.02,1.05-4.54-0.34-6.39
						c-1.43-1.9-4.09-2.37-6.32-2.11c-2.65,0.31-4.98,1.69-7.05,3.29c-2.26,1.74-4.39,3.67-6.44,5.65
						c-4.72,4.58-8.92,9.67-12.53,15.16C57.31,140.54,60.2,140.26,60.71,139.49L60.71,139.49z"/>
				</g>
			</g>
			<g>
				<path class="st13" d="M54.78,139.22c-8.09-2.68-15.51-7.34-21.45-13.45c-1.63-1.68-3.26-3.82-2.86-6.13
					c0.44-2.56,3.36-4.11,5.95-3.86c2.59,0.25,4.85,1.83,6.82,3.52c5.5,4.7,9.86,10.72,12.62,17.41"/>
				<g>
					<path class="st13" d="M55.93,138.51c-8.17-2.74-16.05-7.46-21.83-13.93c-1.39-1.55-2.89-3.77-1.95-5.93
						c0.72-1.66,2.49-2.3,4.18-1.97c2.19,0.43,4.07,1.89,5.71,3.31c1.63,1.41,3.16,2.94,4.58,4.56c3.26,3.73,5.87,7.97,7.78,12.53
						c0.42,1.02,3.28,0.14,2.9-0.78c-1.93-4.62-4.57-8.94-7.85-12.74c-2.99-3.46-7-7.8-11.75-8.55c-3.68-0.58-9.07,1.56-8.73,6
						c0.19,2.44,2.11,4.42,3.75,6.05c1.84,1.82,3.81,3.5,5.89,5.03c4.58,3.37,9.63,6,15.02,7.81c0.67,0.22,1.45,0.12,2.05-0.27
						C56,139.45,56.62,138.74,55.93,138.51L55.93,138.51z"/>
				</g>
			</g>
			<g>
				<path class="st13" d="M57.58,157.09c6.19-7.69,14.8-13.39,24.3-16.09c2.84-0.81,6.5-1.08,8.17,1.35c1.2,1.74,0.74,4.22-0.54,5.9
					s-3.21,2.72-5.11,3.65c-8.61,4.18-17.93,6.89-27.44,8"/>
				<g>
					<path class="st13" d="M58.89,156.98c5.91-7.28,14.02-13,23.1-15.53c1.79-0.5,3.93-0.77,5.57,0.31
						c2.08,1.36,2.09,4.14,0.93,6.13c-1.24,2.12-3.63,3.21-5.75,4.21c-2.43,1.15-4.92,2.17-7.46,3.08
						c-5.72,2.04-11.67,3.42-17.7,4.13c-0.52,0.06-1.64,0.19-1.94,0.69c-0.29,0.48,0.25,0.53,0.69,0.48
						c6.28-0.74,12.45-2.11,18.45-4.12c2.99-1,5.94-2.17,8.81-3.49c2.47-1.13,5.18-2.31,6.99-4.42c1.56-1.82,2.34-4.71,0.73-6.75
						c-1.36-1.73-3.74-1.98-5.79-1.84c-2.59,0.18-5.14,1.03-7.56,1.92c-2.59,0.96-5.09,2.12-7.5,3.47
						c-5.43,3.05-10.26,7.11-14.18,11.94C55.7,157.9,58.45,157.53,58.89,156.98L58.89,156.98z"/>
				</g>
			</g>
			<g>
				<path class="st13" d="M55.29,170.17c-5.91-1.8-11.81-3.61-17.72-5.41c-1.9-0.58-3.97-1.29-4.97-3
					c-0.99-1.69-0.57-3.99,0.75-5.44c1.31-1.45,3.35-2.12,5.31-2.06c1.96,0.05,3.85,0.75,5.58,1.66c5.42,2.85,9.6,7.97,11.31,13.84"
					/>
				<g>
					<path class="st13" d="M56.18,169.36c-4.1-1.25-8.21-2.51-12.31-3.76c-2.01-0.61-4.04-1.19-6.04-1.85
						c-1.49-0.49-3.18-1.19-3.92-2.67c-0.74-1.48-0.37-3.41,0.72-4.62c1.2-1.33,3.02-1.55,4.7-1.24c3.39,0.63,6.58,2.86,8.99,5.25
						c2.71,2.7,4.69,6.01,5.79,9.67c0.31,1.04,3.2,0.25,2.9-0.78c-1.13-3.78-3.2-7.26-6-10.04c-2.84-2.82-6.64-5.33-10.68-5.83
						c-3.73-0.46-8.54,1.1-9.56,5.14c-1.14,4.5,3.39,6.14,6.8,7.18c5.62,1.71,11.23,3.43,16.85,5.15
						C55.36,171.26,57.81,169.86,56.18,169.36L56.18,169.36z"/>
				</g>
			</g>
			<g>
				<path class="st13" d="M57.46,182.59c2.82-5.43,6.91-10.2,11.85-13.81c1.1-0.8,2.26-1.56,3.57-1.89
					c1.32-0.33,2.82-0.17,3.85,0.71c1.61,1.37,1.51,4.02,0.36,5.8c-1.15,1.77-3.07,2.88-4.91,3.91c-5.1,2.87-10.19,5.74-15.29,8.6"
					/>
				<g>
					<path class="st13" d="M58.9,182.37c1.57-3,3.52-5.78,5.79-8.28c1.14-1.25,2.36-2.43,3.65-3.52c1.22-1.02,2.52-2.15,3.98-2.82
						c1.42-0.66,3.13-0.08,3.81,1.36c0.58,1.24,0.43,2.71-0.15,3.93c-0.67,1.39-2,2.38-3.28,3.17c-1.59,0.97-3.24,1.84-4.86,2.76
						c-3.94,2.22-7.87,4.43-11.81,6.65c-0.41,0.23-0.83,0.62-0.3,0.94c0.5,0.31,1.59-0.07,2.04-0.32c4.17-2.35,8.34-4.69,12.51-7.04
						c3.07-1.73,7.49-3.49,8.8-7.09c0.5-1.37,0.5-3-0.31-4.25c-1.02-1.56-2.96-1.95-4.71-1.78c-3.93,0.39-7.3,3.45-10.04,6.06
						c-3.24,3.09-5.92,6.71-7.99,10.67c-0.28,0.54,1,0.48,1.21,0.45C57.81,183.18,58.61,182.93,58.9,182.37L58.9,182.37z"/>
				</g>
			</g>
			<g>
				<path class="st13" d="M54.71,197.43c-10.76-0.19-21.53-4.85-28.38-12.28c5.58-1.31,11.82-0.67,17.08,1.74s9.47,6.57,11.52,11.37
					"/>
				<g>
					<path class="st13" d="M55.23,196.44c-10.24-0.24-20.52-4.36-27.56-11.91c-0.36,0.51-0.72,1.02-1.09,1.53
						c10.4-2.34,22.49,2.54,26.91,12.58c0.53,1.2,3.39,0.35,2.9-0.78c-5.02-11.43-18.61-16.27-30.29-13.64
						c-0.49,0.11-1.7,0.88-1.09,1.53c7.45,7.98,18.35,12.4,29.19,12.65c0.65,0.02,1.59-0.19,1.89-0.86
						C56.36,196.95,55.85,196.46,55.23,196.44L55.23,196.44z"/>
				</g>
			</g>
			<g>
				<path class="st13" d="M59.11,211.53c2.67-4.55,5.9-8.77,9.6-12.54c1.03-1.05,2.12-2.08,3.45-2.72c1.33-0.63,2.95-0.81,4.26-0.15
					c2.07,1.06,2.67,3.91,1.86,6.09c-0.8,2.18-2.64,3.8-4.5,5.19c-4.85,3.64-10.34,6.44-16.14,8.22"/>
				<g>
					<path class="st13" d="M60.45,211.56c1.81-3.07,3.86-5.99,6.14-8.72c1.19-1.42,2.43-2.8,3.75-4.1c1.05-1.03,2.44-2.43,4.06-2.19
						c3.21,0.47,3.18,4.84,1.87,6.97c-1.75,2.86-5.11,4.84-7.92,6.52c-3.43,2.05-7.09,3.7-10.9,4.88c-0.41,0.13-1.42,0.49-1.26,1.1
						c0.16,0.58,1.26,0.44,1.64,0.32c4.13-1.28,8.11-3,11.84-5.19c1.82-1.07,3.58-2.24,5.26-3.51c1.56-1.17,3.12-2.51,4.12-4.21
						c1.58-2.7,1.42-6.94-1.96-8.19c-4.19-1.54-7.94,1.78-10.57,4.59c-3.34,3.57-6.28,7.48-8.76,11.68
						C57.08,212.66,59.97,212.37,60.45,211.56L60.45,211.56z"/>
				</g>
			</g>
			<g>
				<g>
					<path class="st13" d="M56.01,213.87c-0.22,0.24-0.43,0.48-0.65,0.72c-0.08,0.1-0.11,0.2-0.1,0.32c-0.02,0.11,0.02,0.2,0.1,0.28
						c0.09,0.09,0.2,0.15,0.33,0.18c0.15,0.06,0.3,0.08,0.46,0.08c0.12-0.01,0.24-0.01,0.37-0.02c0.27-0.03,0.52-0.1,0.77-0.21
						c0.11-0.06,0.22-0.11,0.33-0.17c0.18-0.1,0.33-0.24,0.45-0.4c0.22-0.24,0.43-0.48,0.65-0.72c0.08-0.1,0.11-0.2,0.1-0.32
						c0.02-0.11-0.02-0.2-0.1-0.28c-0.09-0.09-0.2-0.15-0.33-0.18c-0.15-0.06-0.3-0.08-0.46-0.08c-0.12,0.01-0.24,0.01-0.37,0.02
						c-0.27,0.03-0.52,0.1-0.77,0.21c-0.11,0.06-0.22,0.11-0.33,0.17C56.28,213.57,56.13,213.7,56.01,213.87L56.01,213.87z"/>
				</g>
			</g>
			<g>
				<path class="st13" d="M56.9,227.61c-6.49-3.62-13.53-6.25-20.8-7.77c-1.49-0.31-3.04-0.57-4.52-0.22
					c-1.48,0.36-2.87,1.48-3.08,2.99c-0.21,1.58,0.95,3.1,2.38,3.81s3.08,0.8,4.68,0.87c7.88,0.36,15.76,0.73,23.64,1.09"/>
				<g>
					<path class="st13" d="M58.26,227.11c-4.04-2.24-8.27-4.12-12.64-5.58c-2.16-0.72-4.35-1.35-6.56-1.87
						c-2.15-0.51-4.38-1.04-6.6-0.71c-1.72,0.26-3.6,0.94-4.7,2.36c-1.14,1.48-0.84,3.29,0.4,4.61c1.42,1.5,3.61,1.81,5.57,1.93
						c2.42,0.16,4.85,0.23,7.28,0.34c5.75,0.27,11.49,0.53,17.24,0.8c0.63,0.03,1.55-0.13,2.05-0.55c0.38-0.32,0.45-0.64-0.18-0.67
						c-8.24-0.38-16.51-0.56-24.74-1.15c-1.87-0.13-3.93-0.6-4.97-2.32c-0.87-1.44-0.49-3.85,1.43-4.22
						c1.81-0.34,4.19,0.55,5.94,0.99c1.84,0.46,3.66,1,5.46,1.6c4.26,1.43,8.36,3.26,12.29,5.44c0.53,0.29,1.35,0.05,1.87-0.15
						C57.55,227.91,58.73,227.36,58.26,227.11L58.26,227.11z"/>
				</g>
			</g>
			<g>
				<g>
					<path class="st13" d="M53.2,136.35c0.54,0.82,1.09,1.64,1.63,2.46c0.03,0.09,0.09,0.15,0.18,0.18c0.1,0.06,0.22,0.09,0.35,0.09
						c0.34,0.04,0.74-0.02,1.07-0.12c0.34-0.1,0.7-0.21,0.98-0.43c0.07-0.06,0.13-0.11,0.2-0.17c0.1-0.09,0.14-0.2,0.12-0.33
						c-0.54-0.82-1.09-1.64-1.63-2.46c-0.03-0.09-0.09-0.15-0.18-0.18c-0.1-0.06-0.22-0.09-0.35-0.09
						c-0.34-0.04-0.74,0.02-1.07,0.12c-0.34,0.1-0.7,0.21-0.98,0.43c-0.07,0.06-0.13,0.11-0.2,0.17
						C53.23,136.11,53.19,136.22,53.2,136.35L53.2,136.35z"/>
				</g>
			</g>
		</g>
		<rect x="-74.63" y="138.87" class="st14" width="549.25" height="82.51"/>
		<text transform="matrix(1 0 0 1 62.1479 192.0779)" class="st15 st16 st17 st18">Five Vines</text>
	</g>
</g>
<g id="hearth_and_stone">
</g>
<g id="family_of_eateries">
</g>
</svg>
