<svg id="Group_3" data-name="Group 3" xmlns="http://www.w3.org/2000/svg" width="181.977" height="140.869" viewBox="0 0 181.977 140.869">
  <path id="Path_48" data-name="Path 48" d="M181.693,107.655a67.087,67.087,0,0,1-22.006-3.694c-9.489-3.281-17.262-7.806-23.1-13.45-11.051-10.676-20.11-12.285-25.764-11.755a18.117,18.117,0,0,0-9.717,3.739l-.243-.271a18.482,18.482,0,0,1,9.9-3.828,24.458,24.458,0,0,1,11.358,1.8,46.307,46.307,0,0,1,14.717,10.059c5.8,5.607,13.532,10.1,22.97,13.367a69,69,0,0,0,53.575-3.979,60.4,60.4,0,0,1,16.264-5.723,38.606,38.606,0,0,1,18.681.849C261,98.707,269.663,98.5,274.7,97.628c5.429-.938,7.893-2.816,7.917-2.835l.224.288c-.1.079-2.56,1.953-8.079,2.907-5.072.877-13.793,1.089-26.54-2.877-12.906-4.015-25.978.421-34.671,4.85A69.978,69.978,0,0,1,187,107.451Q184.336,107.655,181.693,107.655Z" transform="translate(-100.859 -75.623)" fill="#3f3d56"/>
  <circle id="Ellipse_14" data-name="Ellipse 14" cx="3.695" cy="3.695" r="3.695" transform="translate(76.404 29.166)" fill="#ebebeb"/>
  <circle id="Ellipse_15" data-name="Ellipse 15" cx="3.695" cy="3.695" r="3.695" transform="translate(133.643 14.401)" fill="#ebebeb"/>
  <circle id="Ellipse_16" data-name="Ellipse 16" cx="3.695" cy="3.695" r="3.695" transform="translate(14.607 0)" fill="#ebebeb"/>
  <path id="Path_49" data-name="Path 49" d="M685.6,387.966v35.7h5.613V391.109h22.451v32.554h5.613V352.269h-5.613c-1.86,0-4.715,9.687-4.715,19.42,0,7.337.857,13.624,2.075,16.277Zm28.064,0h-.055c.018-.04.036-.082.055-.124Z" transform="translate(-579.01 -299.65)" fill="#3f3d56"/>
  <path id="Path_50" data-name="Path 50" d="M762.284,255.342h0c-4.607,0-8.342,4.145-8.342,9.258v6.5h2l1.157-2.407-.289,2.407h12.842l1.052-2.188-.263,2.188h1.446V266C771.883,260.111,767.585,255.342,762.284,255.342Z" transform="translate(-634.891 -220.392)" fill="#2f2e41"/>
  <path id="Path_51" data-name="Path 51" d="M621.342,488.168l-5.122,2.177-17.8,14.47a5.238,5.238,0,0,0-1.152,2.817c-.128,1.665-5.506,10.372-3.585,11.524s8.835,4.61,9.22,2.3,2.433-12.165,2.433-12.165l17.159-15.366Z" transform="translate(-503.508 -410.776)" fill="#2f2e41"/>
  <path id="Path_52" data-name="Path 52" d="M578.772,657.969l-2.177,6.4s2.3,2.433,1.152,4.482V675.9h-1.793l-.512-3.714s-2.042,3.667-3.073,3.714c-2.162.1-6.443.867-6.571-.285s3.242-2.276,3.242-2.276l3.585-9.86,1.537-6.018Z" transform="translate(-481.041 -549.205)" fill="#2f2e41"/>
  <path id="Path_53" data-name="Path 53" d="M679.215,451.465s1.152,11.268-2.177,13.317-18.055,8.579-18.055,8.579,6.274,5.89,4.994,7.3-7.043,5.25-7.811,4.482-9.347-9.988-8.323-12.933,15.238-12.549,15.238-12.549l1.665-6.018.512-4.866,5.378-3.457Z" transform="translate(-548.064 -375.737)" fill="#2f2e41"/>
  <circle id="Ellipse_17" data-name="Ellipse 17" cx="5.338" cy="5.338" r="5.338" transform="translate(119.946 38.816)" fill="#ffb9b9"/>
  <path id="Path_54" data-name="Path 54" d="M783.268,317.825s-.256,4.866,3.714,6.4-9.86,11.524-9.86,11.524v-11.14s1.793-1.921,0-4.866Z" transform="translate(-653.846 -271.485)" fill="#ffb9b9"/>
  <path id="Path_55" data-name="Path 55" d="M825.312,443.211l-1.024,4.994-3.073,17.159s2.561,7.3-.9,7.171-1.793-7.939-1.793-7.939l1.793-14.213v-5.506Z" transform="translate(-687.374 -374.014)" fill="#ffb9b9"/>
  <path id="Path_56" data-name="Path 56" d="M699.931,429.865l-1.152,4.482-5.25,12.677s-3.585,6.018-.64,5.89,2.945-5.89,2.945-5.89l6.018-10.244v-5.762Z" transform="translate(-584.017 -363.101)" fill="#ffb9b9"/>
  <path id="Path_57" data-name="Path 57" d="M713.434,634.978l4.226,3.97s2.945-.64,4.1,2.817,1.921,5.634,1.921,5.634l-1.536.9-1.921-2.689s-1.152,4.866-2.3,5.25-6.915,2.945-6.4,0l2.817-4.1s.384-4.61-.768-4.994-4.226-4.226-4.226-4.226Z" transform="translate(-598.417 -530.824)" fill="#2f2e41"/>
  <path id="Path_58" data-name="Path 58" d="M755.906,473.625s-12.037-4.354-12.8-3.969a5.773,5.773,0,0,1-1.8.468l.011-1.749s3.969-1.409,6.146-.512,8.835,4.866,8.835,4.866Z" transform="translate(-624.552 -393.928)" fill="#3f3d56"/>
  <path id="Path_59" data-name="Path 59" d="M748.552,358.739s3.457-3.969,4.482-6.4a6.287,6.287,0,0,1,3.323-3.268s7.689,1.731,7.561,4.8-4.866,7.811-4.866,7.811.64,17.03-2.817,16.774a7.416,7.416,0,0,1-1.536-3.073c-.384-1.793-12.293-3.713-12.293-3.713s-1.024,1.793-1.152,1.024,1.024-19.591,1.024-19.591l6.106-4.036Z" transform="translate(-624.507 -297.033)" fill="#d0cde1"/>
  <path id="Path_60" data-name="Path 60" d="M832.142,367.626l.086.048a1.766,1.766,0,0,1,.9,1.541v9.5a1.78,1.78,0,0,0,.633,1.355c.493.42.951,1.024.007,1.339-1.536.512-7.555,3.073-7.683,2.177s-.384-1.921,0-1.921c.3,0,2.093-9.182,3.532-13.108a1.767,1.767,0,0,1,2.524-.934Z" transform="translate(-693.718 -312.022)" fill="#d0cde1"/>
  <path id="Path_61" data-name="Path 61" d="M731.028,368.752l-1.793.512-2.049,8.835s-2.433.512-1.665,1.409a39.113,39.113,0,0,0,3.97,3.2Z" transform="translate(-611.53 -313.128)" fill="#d0cde1"/>
  <path id="Path_62" data-name="Path 62" d="M770.846,261.43a4.375,4.375,0,0,0-3.452-1.762h-.164c-3.158,0-5.718,2.857-5.718,6.382h1.058l.171-1.3.251,1.3h6.275l.526-1.1-.131,1.1H770.9q.864,4.292-2.483,8.583h2.1l1.051-2.2-.263,2.2h4.009l.789-5.062A8.555,8.555,0,0,0,770.846,261.43Z" transform="translate(-641.082 -223.929)" fill="#2f2e41"/>
  <path id="Path_63" data-name="Path 63" d="M183.464,416.292c1.347-2.933,2.294-9.885,2.294-18,0-10.762-3.156-21.472-5.213-21.472H174.34v78.939h6.206V419.767h24.823v35.994h6.206V416.292Zm-2.918-.137c.02.046.04.092.06.137h-.06Z" transform="translate(-160.945 -319.727)" fill="#3f3d56"/>
  <path id="Path_64" data-name="Path 64" d="M354.026,514.342s7.474,3.1,5.1,4.922-7.292-2.187-7.109-2.734-.729-1.823-.729-1.823Z" transform="translate(-305.641 -432.178)" fill="#9f616a"/>
  <path id="Path_65" data-name="Path 65" d="M326.2,380.342l2.37,2.187.547,6.38,1.823,6.745s3.1,6.38,2.552,7.656a1.106,1.106,0,0,0,.547,1.641l-4.193,1.641s-4.557-5.1-4.557-6.2S326.2,380.342,326.2,380.342Z" transform="translate(-284.38 -322.605)" fill="#575a88"/>
  <path id="Path_66" data-name="Path 66" d="M326.2,380.342l2.37,2.187.547,6.38,1.823,6.745s3.1,6.38,2.552,7.656a1.106,1.106,0,0,0,.547,1.641l-4.193,1.641s-4.557-5.1-4.557-6.2S326.2,380.342,326.2,380.342Z" transform="translate(-284.38 -322.605)" opacity="0.1"/>
  <path id="Path_67" data-name="Path 67" d="M448.356,732.983s-.911,4.193-1.094,4.557,3.464,1.641,3.464,1.641l4.375-3.1a32.557,32.557,0,0,1-1.823-4.74Z" transform="translate(-384.111 -609.622)" fill="#575a88"/>
  <path id="Path_68" data-name="Path 68" d="M264.954,516.342l1.276,1.458s26.432,3.281,26.979,8.385,4.375,29.167,2.188,29.9-7.839,3.464-7.839,2.005-3.646-21.51-2.917-25.156c0,0-31.536-4.01-32.265-8.568s.729-6.562.729-6.562Z" transform="translate(-224.589 -433.814)" fill="#2f2e41"/>
  <path id="Path_69" data-name="Path 69" d="M264.954,516.342l1.276,1.458s26.432,3.281,26.979,8.385,4.375,29.167,2.188,29.9-7.839,3.464-7.839,2.005-3.646-21.51-2.917-25.156c0,0-31.536-4.01-32.265-8.568s.729-6.562.729-6.562Z" transform="translate(-224.589 -433.814)" opacity="0.1"/>
  <path id="Path_70" data-name="Path 70" d="M442.263,752.194s-.729-1.641-1.094-1.094-1.641,6.927-.365,6.927,12.943,2.917,14.583,2.552,4.74.182,4.375-1.641a2.558,2.558,0,0,0-2.187-2.005s-6.745-4.01-7.109-6.016-2.37-.911-2.37-.911v1.276S444.268,754.2,442.263,752.194Z" transform="translate(-378.383 -624.64)" fill="#2f2e41"/>
  <path id="Path_71" data-name="Path 71" d="M251.626,298.946s1.276,6.2-1.458,6.745,3.464,4.193,3.464,4.193l4.01,2.187,2.917-2.917s-2.643-5.378-.638-9.388S251.626,298.946,251.626,298.946Z" transform="translate(-222.38 -255.064)" fill="#9f616a"/>
  <path id="Path_72" data-name="Path 72" d="M260.558,309.155l-2.917,2.917-4.01-2.187s-6.2-3.646-3.464-4.193c1.759-.352,1.858-3.042,1.706-4.916a16.952,16.952,0,0,0-.248-1.828s10.3-3.19,8.294.82a6.994,6.994,0,0,0-.627,1.961A14.068,14.068,0,0,0,260.558,309.155Z" transform="translate(-222.38 -255.064)" fill="#9f616a"/>
  <path id="Path_73" data-name="Path 73" d="M265.433,697.551v4.193h6.927l.547-1.641-.729-4.375Z" transform="translate(-217.047 -568.904)" fill="#575a88"/>
  <path id="Path_74" data-name="Path 74" d="M209.292,526.529s0,10.755,4.375,11.12,20.052,2.37,20.052,2.37.911,17.864,2.552,23.7.182,6.2,1.641,6.562,7.656-.912,7.474-2.188-.911-33.541-.911-33.541,1.641-6.927-20.234-10.208Z" transform="translate(-189.526 -440.356)" fill="#2f2e41"/>
  <path id="Path_75" data-name="Path 75" d="M358.419,772.1s-1.094-2.37-1.276-1.641-2.37,7.109-.182,7.656,9.115,3.464,13.672,3.281a33.882,33.882,0,0,0,5.1-.365s1.276-1.823-.365-2.917a78.7,78.7,0,0,1-8.75-8.2c-.365-.729-3.1-1.276-3.1,0S359.7,773.736,358.419,772.1Z" transform="translate(-309.486 -640.532)" fill="#2f2e41"/>
  <path id="Path_76" data-name="Path 76" d="M269.586,299.767a6.993,6.993,0,0,0-.627,1.961,4.264,4.264,0,0,1-2.654.408c-1.69,0-2.372-2.16-3.464-3.281-.086-1.041-1.549.091-1.549.091S271.592,295.756,269.586,299.767Z" transform="translate(-232.047 -255.064)" opacity="0.1"/>
  <circle id="Ellipse_18" data-name="Ellipse 18" cx="6.016" cy="6.016" r="6.016" transform="translate(27.787 34.95)" fill="#9f616a"/>
  <path id="Path_77" data-name="Path 77" d="M223.6,348.828s-.911,6.562-1.458,8.932-1.276,13.307-1.641,14.766-2.552,1.823-6.927,1.276a8.2,8.2,0,0,0-.828-.062c-2.694-.086-5.777.922-8.63,1.714a21.7,21.7,0,0,1-4.579.9c-2.078.095-2.687-2.209-2.616-4.7a13,13,0,0,1,1.34-5.687c1.107-1.582.018-15.788.427-20.473v0a3.4,3.4,0,0,1,.3-1.4c1.094-1.458,8.2-5.1,9-4.956s7.589,4.41,7.589,4.41c1.641,0,1.588-1.779,1.588-1.779a5.853,5.853,0,0,0,3.334,2.691C222.684,345,223.6,348.828,223.6,348.828Z" transform="translate(-179.403 -288.904)" fill="#575a88"/>
  <path id="Path_78" data-name="Path 78" d="M268.9,521.984s11.742.374,9.685,1.769-11.172,2.671-11.354.848A2.756,2.756,0,0,1,268.9,521.984Z" transform="translate(-236.896 -438.428)" fill="#9f616a"/>
  <path id="Path_79" data-name="Path 79" d="M212.767,401.717c.038.7-1.845,2.277-2.454,3.343-.337.591-2.948-.188-6.176-1.63a63.346,63.346,0,0,1-7.2-3.8,13,13,0,0,1,1.34-5.687c1.106-1.582.018-15.788.427-20.473v0a2.017,2.017,0,0,1,.3-.124H201.2c7.474,3.464-1.094,18.411-1.094,18.411s11.3,9.3,12.4,9.661A.328.328,0,0,1,212.767,401.717Z" transform="translate(-179.427 -316.881)" opacity="0.1"/>
  <path id="Path_80" data-name="Path 80" d="M173.939,367.342h-2.187s-2.005.547-3.646,4.193-7.656,14.948-2.37,19.323,16.588,9.479,17.318,8.2,3.281-3.281,2.187-3.646-12.4-9.661-12.4-9.661S181.413,370.805,173.939,367.342Z" transform="translate(-152.168 -311.975)" fill="#575a88"/>
  <path id="Path_81" data-name="Path 81" d="M246.494,245.179s.264-3.654,3.521-2.164,3.044-2.617,2.06-3.343-.953-.905-4.552-.42-10.588,1.308-8.328,8.546,4.306,5.376,4.306,5.376-1.8-6.513.024-5.272l1.82,1.241.96-.2Z" transform="translate(-213.616 -207.012)" fill="#2f2e41"/>
  <path id="Path_82" data-name="Path 82" d="M528.444,534.935c0-3.29-24.45-5.958-54.612-5.958s-54.612,2.667-54.612,5.958c0,1.275,3.675,2.457,9.929,3.426v40.76h2.979v-40.34c10.018,1.291,24.981,2.112,41.7,2.112,16.86,0,31.934-.834,41.952-2.144v40.372h2.979v-40.8C524.866,537.36,528.444,536.193,528.444,534.935Z" transform="translate(-361.187 -444.146)" fill="#3f3d56"/>
  <ellipse id="Ellipse_19" data-name="Ellipse 19" cx="11.12" cy="2.734" rx="11.12" ry="2.734" transform="translate(108.368 85.445)" fill="#f2f2f2"/>
  <ellipse id="Ellipse_20" data-name="Ellipse 20" cx="9.115" cy="2.241" rx="9.115" ry="2.241" transform="translate(110.373 85.938)" fill="#d0cde1"/>
  <ellipse id="Ellipse_21" data-name="Ellipse 21" cx="11.12" cy="2.734" rx="11.12" ry="2.734" transform="translate(66.988 87.632)" fill="#f2f2f2"/>
  <ellipse id="Ellipse_22" data-name="Ellipse 22" cx="9.115" cy="2.241" rx="9.115" ry="2.241" transform="translate(68.993 88.125)" fill="#d0cde1"/>
  <ellipse id="Ellipse_23" data-name="Ellipse 23" cx="5.301" cy="0.837" rx="5.301" ry="0.837" transform="translate(113.928 86.312)" fill="#9f616a"/>
  <ellipse id="Ellipse_24" data-name="Ellipse 24" cx="1.674" cy="0.907" rx="1.674" ry="0.907" transform="translate(114.73 85.021)" fill="#ebebeb"/>
  <ellipse id="Ellipse_25" data-name="Ellipse 25" cx="1.674" cy="0.907" rx="1.674" ry="0.907" transform="translate(114.102 85.021)" fill="#ebebeb"/>
  <ellipse id="Ellipse_26" data-name="Ellipse 26" cx="1.674" cy="0.907" rx="1.674" ry="0.907" transform="translate(121.426 85.231)" fill="#ebebeb"/>
  <ellipse id="Ellipse_27" data-name="Ellipse 27" cx="1.674" cy="0.907" rx="1.674" ry="0.907" transform="translate(117.59 85.021)" fill="#ebebeb"/>
  <ellipse id="Ellipse_28" data-name="Ellipse 28" cx="1.674" cy="0.907" rx="1.674" ry="0.907" transform="translate(120.45 85.021)" fill="#ebebeb"/>
  <path id="Path_83" data-name="Path 83" d="M736.98,512.5a17.172,17.172,0,0,1-10.184,0v-.141a4.16,4.16,0,0,1,3.95-4.157,26.148,26.148,0,0,1,2.693,0,3.759,3.759,0,0,1,3.54,3.762Z" transform="translate(-612.694 -427.134)" fill="#3f3d56"/>
  <path id="Path_84" data-name="Path 84" d="M735.651,543.443a33.468,33.468,0,0,1-6.725,0,2.149,2.149,0,0,1-1.939-2.135h10.6A2.149,2.149,0,0,1,735.651,543.443Z" transform="translate(-612.851 -454.229)" fill="#3f3d56"/>
  <path id="Path_85" data-name="Path 85" d="M740.193,514.792a2,2,0,0,1-1.535,0A2,2,0,0,1,740.193,514.792Z" transform="translate(-622.394 -432.421)" fill="#d0cde1"/>
  <path id="Path_86" data-name="Path 86" d="M748.611,518.236a1.994,1.994,0,0,1-1.534,0A1.994,1.994,0,0,1,748.611,518.236Z" transform="translate(-629.277 -435.237)" fill="#d0cde1"/>
  <path id="Path_87" data-name="Path 87" d="M749.376,512.114a2,2,0,0,1-1.535,0A2,2,0,0,1,749.376,512.114Z" transform="translate(-629.903 -430.231)" fill="#d0cde1"/>
  <path id="Path_88" data-name="Path 88" d="M765.064,512.114a2,2,0,0,1-1.535,0A2,2,0,0,1,765.064,512.114Z" transform="translate(-642.731 -430.231)" fill="#d0cde1"/>
  <path id="Path_89" data-name="Path 89" d="M760.855,515.557a2,2,0,0,1-1.535,0A2,2,0,0,1,760.855,515.557Z" transform="translate(-639.29 -433.047)" fill="#d0cde1"/>
  <ellipse id="Ellipse_29" data-name="Ellipse 29" cx="5.301" cy="0.837" rx="5.301" ry="0.837" transform="translate(72.73 88.499)" fill="#9f616a"/>
  <ellipse id="Ellipse_30" data-name="Ellipse 30" cx="1.674" cy="0.907" rx="1.674" ry="0.907" transform="translate(73.532 87.209)" fill="#ebebeb"/>
  <ellipse id="Ellipse_31" data-name="Ellipse 31" cx="1.674" cy="0.907" rx="1.674" ry="0.907" transform="translate(72.905 87.209)" fill="#ebebeb"/>
  <ellipse id="Ellipse_32" data-name="Ellipse 32" cx="1.674" cy="0.907" rx="1.674" ry="0.907" transform="translate(80.229 87.418)" fill="#ebebeb"/>
  <ellipse id="Ellipse_33" data-name="Ellipse 33" cx="1.674" cy="0.907" rx="1.674" ry="0.907" transform="translate(76.392 87.209)" fill="#ebebeb"/>
  <ellipse id="Ellipse_34" data-name="Ellipse 34" cx="1.674" cy="0.907" rx="1.674" ry="0.907" transform="translate(79.252 87.209)" fill="#ebebeb"/>
  <path id="Path_90" data-name="Path 90" d="M510.98,524.5a17.174,17.174,0,0,1-10.184,0v-.141a4.16,4.16,0,0,1,3.95-4.157,26.148,26.148,0,0,1,2.693,0,3.759,3.759,0,0,1,3.54,3.762Z" transform="translate(-427.892 -436.947)" fill="#3f3d56"/>
  <path id="Path_91" data-name="Path 91" d="M509.651,555.443a33.459,33.459,0,0,1-6.725,0,2.148,2.148,0,0,1-1.939-2.135h10.6A2.148,2.148,0,0,1,509.651,555.443Z" transform="translate(-428.048 -464.042)" fill="#3f3d56"/>
  <path id="Path_92" data-name="Path 92" d="M514.193,526.792a2,2,0,0,1-1.535,0A1.995,1.995,0,0,1,514.193,526.792Z" transform="translate(-437.591 -442.234)" fill="#d0cde1"/>
  <path id="Path_93" data-name="Path 93" d="M522.611,530.236a2,2,0,0,1-1.534,0A2,2,0,0,1,522.611,530.236Z" transform="translate(-444.475 -445.049)" fill="#d0cde1"/>
  <path id="Path_94" data-name="Path 94" d="M523.376,524.114a2,2,0,0,1-1.534,0A1.995,1.995,0,0,1,523.376,524.114Z" transform="translate(-445.101 -440.043)" fill="#d0cde1"/>
  <path id="Path_95" data-name="Path 95" d="M539.064,524.114a2,2,0,0,1-1.535,0A2,2,0,0,1,539.064,524.114Z" transform="translate(-457.929 -440.043)" fill="#d0cde1"/>
  <path id="Path_96" data-name="Path 96" d="M534.855,527.557a2,2,0,0,1-1.535,0A1.995,1.995,0,0,1,534.855,527.557Z" transform="translate(-454.487 -442.859)" fill="#d0cde1"/>
  <path id="Path_97" data-name="Path 97" d="M784.7,543.277l.026.565.033.732s-3.364.19-4.041.906a.409.409,0,0,0-.043.05l-1.347-.295,0-.664.055-.03.029-.015a12.264,12.264,0,0,1,5.293-1.249Z" transform="translate(-655.645 -455.839)" fill="#ebebeb"/>
  <path id="Path_98" data-name="Path 98" d="M784.944,543.277l.026.565a22.551,22.551,0,0,0-4.314.935l-1.033-.236A12.231,12.231,0,0,1,784.944,543.277Z" transform="translate(-655.89 -455.839)" opacity="0.1"/>
  <path id="Path_99" data-name="Path 99" d="M779.405,550.13l1,.251.306.7a.41.41,0,0,0-.043.05l-1.347-.295,0-.664.055-.03Z" transform="translate(-655.645 -461.442)" fill="#fff" opacity="0.1"/>
  <path id="Path_100" data-name="Path 100" d="M561.7,556.277l.026.565.033.732s-3.364.19-4.041.906a.409.409,0,0,0-.043.05l-1.347-.295,0-.664.055-.03.029-.015A12.264,12.264,0,0,1,561.7,556.277Z" transform="translate(-473.295 -466.47)" fill="#ebebeb"/>
  <path id="Path_101" data-name="Path 101" d="M561.944,556.277l.026.565a22.549,22.549,0,0,0-4.314.935l-1.033-.236A12.227,12.227,0,0,1,561.944,556.277Z" transform="translate(-473.541 -466.47)" opacity="0.1"/>
  <path id="Path_102" data-name="Path 102" d="M556.405,563.13l1,.251.306.7a.409.409,0,0,0-.043.05l-1.347-.295,0-.664.055-.03Z" transform="translate(-473.295 -472.073)" fill="#fff" opacity="0.1"/>
  <path id="Path_103" data-name="Path 103" d="M895.045,414.242a3.363,3.363,0,0,0-.993-.686v-7.083a.313.313,0,0,0-.313-.313h-1.753a.313.313,0,0,0-.313.313v6.947a3.179,3.179,0,0,0-2.178,3.016V431.63a1.392,1.392,0,0,0,1.392,1.392h3.756a1.386,1.386,0,0,0,1.386-1.386V416.615A3.345,3.345,0,0,0,895.045,414.242Z" transform="translate(-745.734 -343.717)" fill="#3f3d56"/>
  <rect id="Rectangle_4" data-name="Rectangle 4" width="6.534" height="8.632" transform="translate(143.761 74.947)" fill="#ebebeb"/>
  <path id="Path_104" data-name="Path 104" d="M903.331,406.643h-.141v-.171a.313.313,0,0,0-.313-.313h-1.753a.313.313,0,0,0-.313.313v.171h-.141v.726h.141v3.711h2.38v-3.711h.141Z" transform="translate(-754.871 -343.717)" fill="#ebebeb"/>
  <path id="Path_105" data-name="Path 105" d="M600.668,480.994c-.173-.369-.309-.63-.357-.72a9.505,9.505,0,0,1-5.2,0,17.239,17.239,0,0,0-1.474,3.853c-.344,1.575-.144,2.632.593,3.139l.022.016,0,0c.814.537,1.591,1.012,2.309,1.412l.273.15.009,0,.006.008a4.358,4.358,0,0,1,.275.388,1.523,1.523,0,0,1,.279.753v7.825h-.049c-1.871.038-3.029.355-3.029.627,0,.3,1.389.631,3.381.631s3.381-.332,3.381-.631c0-.268-1.138-.583-2.978-.626h-.05l.046-7.238a3.192,3.192,0,0,1,.333-1.412c.037-.074.077-.146.119-.213s.069-.108.105-.158l.007-.009.01-.005q.138-.075.293-.164l.012-.007c.679-.384,1.411-.833,2.175-1.337.682-.45.92-1.359.706-2.7A14.427,14.427,0,0,0,600.668,480.994Z" transform="translate(-503.676 -404.321)" fill="#d0cde1"/>
  <path id="Path_106" data-name="Path 106" d="M602.562,504.777c-.8.528-1.463.924-1.969,1.21h0a11.514,11.514,0,0,0-2.213.062c-.519-.289-1.218-.7-2.079-1.272l-.025-.017h0c-.789-.543-.809-1.693-.552-2.869a6.958,6.958,0,0,1,3.095.459,7.224,7.224,0,0,0,4.4-.047A2.358,2.358,0,0,1,602.562,504.777Z" transform="translate(-505.395 -421.973)" fill="#ebebeb"/>
  <circle id="Ellipse_35" data-name="Ellipse 35" cx="0.227" cy="0.227" r="0.227" transform="translate(92.176 79.038)" fill="#ebebeb"/>
  <circle id="Ellipse_36" data-name="Ellipse 36" cx="0.227" cy="0.227" r="0.227" transform="translate(91.541 81.125)" fill="#fff"/>
  <circle id="Ellipse_37" data-name="Ellipse 37" cx="0.136" cy="0.136" r="0.136" transform="translate(92.812 79.673)" fill="#ebebeb"/>
  <circle id="Ellipse_38" data-name="Ellipse 38" cx="0.136" cy="0.136" r="0.136" transform="translate(93.356 82.26)" fill="#fff"/>
  <circle id="Ellipse_39" data-name="Ellipse 39" cx="0.136" cy="0.136" r="0.136" transform="translate(92.403 82.396)" fill="#fff"/>
  <circle id="Ellipse_40" data-name="Ellipse 40" cx="0.136" cy="0.136" r="0.136" transform="translate(95.171 77.858)" fill="#ebebeb"/>
  <path id="Path_107" data-name="Path 107" d="M659.046,440.528c-.173-.369-.309-.63-.357-.72a9.5,9.5,0,0,1-5.2,0,17.248,17.248,0,0,0-1.474,3.853c-.344,1.575-.144,2.632.594,3.139l.022.016,0,0c.814.537,1.591,1.012,2.309,1.413l.274.15.009,0,.006.008a4.358,4.358,0,0,1,.275.388,1.525,1.525,0,0,1,.279.753v7.825h-.049c-1.871.038-3.029.355-3.029.627,0,.3,1.389.631,3.381.631s3.381-.332,3.381-.631c0-.268-1.138-.583-2.977-.626h-.05l.046-7.238a3.192,3.192,0,0,1,.333-1.412c.037-.074.077-.146.119-.213s.069-.107.105-.158l.007-.009.01-.005q.138-.076.293-.164l.012-.007c.679-.384,1.411-.833,2.175-1.337.682-.45.92-1.359.706-2.7A14.426,14.426,0,0,0,659.046,440.528Z" transform="translate(-551.412 -371.231)" fill="#d0cde1"/>
  <path id="Path_108" data-name="Path 108" d="M660.94,464.311c-.8.528-1.463.924-1.969,1.21h0a11.521,11.521,0,0,0-2.213.062c-.519-.289-1.218-.7-2.079-1.272l-.024-.017h0c-.79-.543-.809-1.693-.552-2.869a6.957,6.957,0,0,1,3.095.459,7.225,7.225,0,0,0,4.4-.047A2.357,2.357,0,0,1,660.94,464.311Z" transform="translate(-553.131 -388.883)" fill="#ebebeb"/>
  <circle id="Ellipse_41" data-name="Ellipse 41" cx="0.227" cy="0.227" r="0.227" transform="translate(102.818 71.662)" fill="#ebebeb"/>
  <circle id="Ellipse_42" data-name="Ellipse 42" cx="0.227" cy="0.227" r="0.227" transform="translate(102.183 73.749)" fill="#fff"/>
  <circle id="Ellipse_43" data-name="Ellipse 43" cx="0.136" cy="0.136" r="0.136" transform="translate(103.453 72.297)" fill="#ebebeb"/>
  <circle id="Ellipse_44" data-name="Ellipse 44" cx="0.136" cy="0.136" r="0.136" transform="translate(103.998 74.883)" fill="#fff"/>
  <circle id="Ellipse_45" data-name="Ellipse 45" cx="0.136" cy="0.136" r="0.136" transform="translate(103.045 75.019)" fill="#fff"/>
  <circle id="Ellipse_46" data-name="Ellipse 46" cx="0.136" cy="0.136" r="0.136" transform="translate(105.813 70.482)" fill="#ebebeb"/>
</svg>
