<svg xmlns="http://www.w3.org/2000/svg" viewBox="0 0 270 400"><defs><style>.cls-1{fill:#d4b092;}.cls-2{fill:#fff;}.cls-3{font-size:62.91px;fill:#231f20;font-family:BebasNeueRegular, Bebas Neue;}</style></defs><g id="hearth_and_stone" data-name="hearth and stone"><rect class="cls-1" x="59.82" y="28.99" width="151.06" height="255.44"/><path class="cls-2" d="M94.45,28.65h26.09l41.2,170.06s27.38,9,29.38,27.18l10.35,58.54H193.4L175.25,218.9a6.89,6.89,0,0,0-2.25-3.52c-1.72-1.42-4.4-2.69-6.81.15a7.76,7.76,0,0,0-1.38,7.17l17.83,61.73h-9.19l-15.87-60a7.78,7.78,0,0,0-3.33-4.63c-2.08-1.31-4.84-2-6.24,1.78a8.51,8.51,0,0,0-.07,5.28l16.87,57.55h-9.1l-15.37-58.84a4.7,4.7,0,0,0-3.56-3.46,4.33,4.33,0,0,0-5,2.3,5.36,5.36,0,0,0-.43,4.08l16,55.92h-6.18s-14.42-32.92-18.54-53.49a48,48,0,0,1,7.55-21.26L137,199.4Z"/><text class="cls-3" transform="translate(59.82 336.65)">Hearth </text><text class="cls-3" transform="translate(56.68 390.2)"><tspan xml:space="preserve">&amp; Stone  </tspan></text></g></svg>