<svg xmlns="http://www.w3.org/2000/svg" xmlns:xlink="http://www.w3.org/1999/xlink" width="104.159" height="13.147" viewBox="0 0 104.159 13.147">
  <defs>
    <clipPath id="clip-path">
      <rect width="104.159" height="13.147" fill="none"/>
    </clipPath>
  </defs>
  <g id="Repeat_Grid_8" data-name="Repeat Grid 8" clip-path="url(#clip-path)">
    <g transform="translate(-21.5 -247)">
      <path id="Icon_ionic-ios-star" data-name="Icon ionic-ios-star" d="M15.872,7.926H11.223L9.81,3.71a.512.512,0,0,0-.961,0L7.436,7.926H2.756a.507.507,0,0,0-.506.506.372.372,0,0,0,.009.085.486.486,0,0,0,.212.357l3.821,2.693L4.826,15.83A.507.507,0,0,0,5,16.4a.489.489,0,0,0,.284.123.62.62,0,0,0,.316-.114l3.729-2.658,3.729,2.658a.592.592,0,0,0,.316.114.454.454,0,0,0,.281-.123.5.5,0,0,0,.174-.569l-1.466-4.263,3.789-2.718.092-.079a.483.483,0,0,0-.373-.844Z" transform="translate(19.25 243.625)" fill="#fff"/>
    </g>
    <g transform="translate(-0.5 -247)">
      <path id="Icon_ionic-ios-star-2" data-name="Icon ionic-ios-star" d="M15.872,7.926H11.223L9.81,3.71a.512.512,0,0,0-.961,0L7.436,7.926H2.756a.507.507,0,0,0-.506.506.372.372,0,0,0,.009.085.486.486,0,0,0,.212.357l3.821,2.693L4.826,15.83A.507.507,0,0,0,5,16.4a.489.489,0,0,0,.284.123.62.62,0,0,0,.316-.114l3.729-2.658,3.729,2.658a.592.592,0,0,0,.316.114.454.454,0,0,0,.281-.123.5.5,0,0,0,.174-.569l-1.466-4.263,3.789-2.718.092-.079a.483.483,0,0,0-.373-.844Z" transform="translate(19.25 243.625)" fill="#fff"/>
    </g>
    <g transform="translate(20.5 -247)">
      <path id="Icon_ionic-ios-star-3" data-name="Icon ionic-ios-star" d="M15.872,7.926H11.223L9.81,3.71a.512.512,0,0,0-.961,0L7.436,7.926H2.756a.507.507,0,0,0-.506.506.372.372,0,0,0,.009.085.486.486,0,0,0,.212.357l3.821,2.693L4.826,15.83A.507.507,0,0,0,5,16.4a.489.489,0,0,0,.284.123.62.62,0,0,0,.316-.114l3.729-2.658,3.729,2.658a.592.592,0,0,0,.316.114.454.454,0,0,0,.281-.123.5.5,0,0,0,.174-.569l-1.466-4.263,3.789-2.718.092-.079a.483.483,0,0,0-.373-.844Z" transform="translate(19.25 243.625)" fill="#fff"/>
    </g>
    <g transform="translate(41.5 -247)">
      <path id="Icon_ionic-ios-star-4" data-name="Icon ionic-ios-star" d="M15.872,7.926H11.223L9.81,3.71a.512.512,0,0,0-.961,0L7.436,7.926H2.756a.507.507,0,0,0-.506.506.372.372,0,0,0,.009.085.486.486,0,0,0,.212.357l3.821,2.693L4.826,15.83A.507.507,0,0,0,5,16.4a.489.489,0,0,0,.284.123.62.62,0,0,0,.316-.114l3.729-2.658,3.729,2.658a.592.592,0,0,0,.316.114.454.454,0,0,0,.281-.123.5.5,0,0,0,.174-.569l-1.466-4.263,3.789-2.718.092-.079a.483.483,0,0,0-.373-.844Z" transform="translate(19.25 243.625)" fill="#fff"/>
    </g>
    <g transform="translate(62.5 -247)">
      <path id="Icon_ionic-ios-star-5" data-name="Icon ionic-ios-star" d="M15.872,7.926H11.223L9.81,3.71a.512.512,0,0,0-.961,0L7.436,7.926H2.756a.507.507,0,0,0-.506.506.372.372,0,0,0,.009.085.486.486,0,0,0,.212.357l3.821,2.693L4.826,15.83A.507.507,0,0,0,5,16.4a.489.489,0,0,0,.284.123.62.62,0,0,0,.316-.114l3.729-2.658,3.729,2.658a.592.592,0,0,0,.316.114.454.454,0,0,0,.281-.123.5.5,0,0,0,.174-.569l-1.466-4.263,3.789-2.718.092-.079a.483.483,0,0,0-.373-.844Z" transform="translate(19.25 243.625)" fill="#fff"/>
    </g>
  </g>
</svg>
